<svg width="20" height="24" viewBox="0 0 20 24" fill="none" xmlns="http://www.w3.org/2000/svg">
<path fill-rule="evenodd" clip-rule="evenodd" d="M8.97619 0.0829145C7.54332 0.329612 6.13087 1.12413 5.22363 2.19381C3.00058 4.8149 3.12219 8.60131 5.50718 11.0216C7.88477 13.4342 11.6263 13.5627 14.1943 11.3199C14.9864 10.6281 15.718 9.50613 16.0492 8.47542C17.0101 5.48463 15.7018 2.20611 12.9708 0.761592C11.7167 0.0981526 10.2928 -0.143754 8.97619 0.0829145ZM10.7001 1.90896C13.1377 2.2917 14.8519 4.63446 14.4969 7.09798C14.0219 10.3944 10.4081 12.1238 7.62562 10.3861C6.03486 9.39265 5.18387 7.46739 5.53005 5.64492C6.0042 3.14868 8.25182 1.52454 10.7001 1.90896ZM15.988 12.0089C15.8558 12.0753 15.6992 12.2117 15.6399 12.3119C15.351 12.8001 15.432 13.1157 16.0097 13.7524C17.2891 15.1623 18.0465 16.9508 18.1693 18.8517C18.2179 19.6041 18.166 19.7558 17.7132 20.1857C15.973 21.8375 10.8556 22.6102 6.55878 21.87C4.70147 21.5501 3.05519 20.909 2.32206 20.2202C1.84176 19.769 1.78539 19.6163 1.82948 18.886C1.94324 16.9992 2.70697 15.1613 3.93956 13.8081C4.39938 13.3033 4.50358 13.0975 4.46678 12.7666C4.39813 12.1485 3.70954 11.7508 3.18578 12.0267C2.96799 12.1415 2.34447 12.8142 1.93431 13.3769C0.775714 14.9664 0.109931 16.8765 0.00874122 18.9011C-0.046205 19.9999 0.149406 20.569 0.837429 21.3119C3.27844 23.9476 10.8147 24.8395 16.0233 23.1091C17.4493 22.6353 18.4904 22.0378 19.1714 21.3024C19.8501 20.5695 20.046 19.9956 19.9913 18.9011C19.8694 16.4627 18.9097 14.1581 17.3141 12.4723C16.7443 11.8702 16.4611 11.7713 15.988 12.0089Z" fill="black"/>
</svg>
