<svg width="5" height="11" viewBox="0 0 5 11" fill="none" xmlns="http://www.w3.org/2000/svg">
<path fill-rule="evenodd" clip-rule="evenodd" d="M0.6175 10.1031C0.687134 10.077 0.968776 9.77573 2.81439 7.75307C4.758 5.62303 4.93429 5.42455 4.9666 5.33C5.01113 5.19973 5.01113 5.10147 4.9666 4.9712C4.93429 4.87665 4.758 4.67815 2.81439 2.54809C0.789109 0.328485 0.69324 0.226479 0.601756 0.194113C0.220819 0.0593119 -0.122612 0.481009 0.0424824 0.880836C0.0625582 0.929463 0.711167 1.65551 1.98233 3.05224L3.89202 5.1506L1.98233 7.24896C0.738112 8.61609 0.0623627 9.3722 0.0431747 9.41875C-0.0658112 9.68298 0.0492101 9.99692 0.291447 10.0964C0.40432 10.1427 0.505993 10.1448 0.6175 10.1031Z" fill="#888888"/>
</svg>
