<svg width="162" height="54" viewBox="0 0 162 54" fill="none" xmlns="http://www.w3.org/2000/svg">
<rect x="0.5" y="0.5" width="161" height="53" rx="6.5" fill="#0C0D10"/>
<path d="M110.059 25.9215V29.0143H108.12V31.0426H110.059V37.9344C110.059 40.2876 111.124 41.2289 113.802 41.2289C114.273 41.2289 114.721 41.1729 115.113 41.1057V39.0998C114.777 39.1334 114.564 39.1558 114.194 39.1558C112.995 39.1558 112.468 38.5955 112.468 37.318V31.0426H115.113V29.0143H112.468V25.9215H110.059Z" fill="white"/>
<path d="M121.936 41.397C125.499 41.397 127.684 39.0102 127.684 35.0544C127.684 31.1211 125.488 28.723 121.936 28.723C118.372 28.723 116.176 31.1211 116.176 35.0544C116.176 39.0102 118.361 41.397 121.936 41.397ZM121.936 39.2567C119.84 39.2567 118.663 37.7215 118.663 35.0544C118.663 32.4098 119.84 30.8633 121.936 30.8633C124.02 30.8633 125.208 32.4098 125.208 35.0544C125.208 37.7102 124.02 39.2567 121.936 39.2567Z" fill="white"/>
<path d="M129.554 41.1617H131.963V33.9562C131.963 32.2417 133.252 31.0875 135.079 31.0875C135.504 31.0875 136.222 31.1659 136.423 31.2331V28.8575C136.166 28.7902 135.706 28.7566 135.348 28.7566C133.756 28.7566 132.4 29.6307 132.053 30.8297H131.874V28.9583H129.554V41.1617Z" fill="white"/>
<path d="M142.406 30.7737C144.187 30.7737 145.353 32.0176 145.409 33.9338H139.245C139.38 32.0288 140.624 30.7737 142.406 30.7737ZM145.398 37.8671C144.949 38.8196 143.952 39.3463 142.495 39.3463C140.568 39.3463 139.324 37.9904 139.245 35.85V35.7156H147.863V34.8751C147.863 31.0426 145.812 28.723 142.417 28.723C138.976 28.723 136.791 31.1995 136.791 35.0992C136.791 38.9989 138.932 41.397 142.428 41.397C145.218 41.397 147.168 40.0523 147.717 37.8671H145.398Z" fill="white"/>
<path d="M94.2592 36.6552C94.445 39.6518 96.9422 41.5682 100.659 41.5682C104.631 41.5682 107.117 39.5589 107.117 36.3532C107.117 33.8328 105.7 32.439 102.262 31.6376L100.415 31.1846C98.2314 30.6736 97.3487 29.9883 97.3487 28.792C97.3487 27.2821 98.7193 26.2948 100.775 26.2948C102.726 26.2948 104.074 27.2589 104.318 28.8036H106.85C106.699 25.9812 104.213 23.9951 100.81 23.9951C97.1513 23.9951 94.7122 25.9812 94.7122 28.9662C94.7122 31.4286 96.0943 32.892 99.1258 33.6005L101.286 34.1232C103.505 34.6458 104.48 35.4124 104.48 36.69C104.48 38.1767 102.947 39.2569 100.856 39.2569C98.6147 39.2569 97.0584 38.2464 96.8377 36.6552H94.2592Z" fill="white"/>
<path d="M69.3013 28.7566C67.6428 28.7566 66.2084 29.5859 65.4688 30.9754H65.2895V28.9583H62.9699V45.2183H65.3792V39.3127H65.5697C66.2084 40.6014 67.5868 41.3634 69.3237 41.3634C72.4054 41.3634 74.3664 38.9317 74.3664 35.0544C74.3664 31.1771 72.4054 28.7566 69.3013 28.7566ZM68.6177 39.2007C66.6006 39.2007 65.3344 37.6094 65.3344 35.0656C65.3344 32.5106 66.6006 30.9194 68.6289 30.9194C70.6684 30.9194 71.8899 32.477 71.8899 35.0544C71.8899 37.643 70.6684 39.2007 68.6177 39.2007Z" fill="white"/>
<path d="M82.797 28.7566C81.1385 28.7566 79.7041 29.5859 78.9645 30.9754H78.7852V28.9583H76.4656V45.2183H78.8749V39.3127H79.0654C79.7041 40.6014 81.0824 41.3634 82.8194 41.3634C85.9011 41.3634 87.8621 38.9317 87.8621 35.0544C87.8621 31.1771 85.9011 28.7566 82.797 28.7566ZM82.1134 39.2007C80.0963 39.2007 78.83 37.6094 78.83 35.0656C78.83 32.5106 80.0963 30.9194 82.1246 30.9194C84.1641 30.9194 85.3856 32.477 85.3856 35.0544C85.3856 37.643 84.1641 39.2007 82.1134 39.2007Z" fill="white"/>
<path d="M58.6472 41.1617H61.4115L55.3602 24.4016H52.561L46.5098 41.1617H49.1812L50.7259 36.7133H57.114L58.6472 41.1617ZM53.8271 27.4447H54.0245L56.452 34.5297H51.388L53.8271 27.4447Z" fill="white"/>
<path d="M48.1289 11.7601V19.8453H51.0481C53.4574 19.8453 54.8525 18.3605 54.8525 15.7775C54.8525 13.2337 53.4462 11.7601 51.0481 11.7601H48.1289ZM49.384 12.9031H50.908C52.5833 12.9031 53.575 13.9677 53.575 15.7943C53.575 17.6489 52.6001 18.7023 50.908 18.7023H49.384V12.9031Z" fill="white"/>
<path d="M59.1254 19.963C60.9072 19.963 61.9998 18.7695 61.9998 16.7916C61.9998 14.825 60.9016 13.6259 59.1254 13.6259C57.3436 13.6259 56.2455 14.825 56.2455 16.7916C56.2455 18.7695 57.338 19.963 59.1254 19.963ZM59.1254 18.8928C58.0776 18.8928 57.4893 18.1252 57.4893 16.7916C57.4893 15.4693 58.0776 14.6961 59.1254 14.6961C60.1676 14.6961 60.7615 15.4693 60.7615 16.7916C60.7615 18.1196 60.1676 18.8928 59.1254 18.8928Z" fill="white"/>
<path d="M71.3041 13.7436H70.0995L69.0125 18.3997H68.9173L67.6622 13.7436H66.508L65.2529 18.3997H65.1632L64.0706 13.7436H62.8492L64.5301 19.8453H65.7684L67.0234 15.3517H67.1187L68.3794 19.8453H69.6288L71.3041 13.7436Z" fill="white"/>
<path d="M72.6915 19.8453H73.8961V16.2762C73.8961 15.3236 74.462 14.7297 75.3529 14.7297C76.2438 14.7297 76.6696 15.2172 76.6696 16.1977V19.8453H77.8743V15.8952C77.8743 14.444 77.1235 13.6259 75.7619 13.6259C74.843 13.6259 74.2379 14.0349 73.9409 14.7129H73.8513V13.7436H72.6915V19.8453Z" fill="white"/>
<path d="M79.7714 19.8453H80.9761V11.3623H79.7714V19.8453Z" fill="white"/>
<path d="M85.5067 19.963C87.2885 19.963 88.3811 18.7695 88.3811 16.7916C88.3811 14.825 87.2829 13.6259 85.5067 13.6259C83.7249 13.6259 82.6267 14.825 82.6267 16.7916C82.6267 18.7695 83.7193 19.963 85.5067 19.963ZM85.5067 18.8928C84.4589 18.8928 83.8706 18.1252 83.8706 16.7916C83.8706 15.4693 84.4589 14.6961 85.5067 14.6961C86.5489 14.6961 87.1428 15.4693 87.1428 16.7916C87.1428 18.1196 86.5489 18.8928 85.5067 18.8928Z" fill="white"/>
<path d="M91.9704 18.932C91.3148 18.932 90.8385 18.6126 90.8385 18.0635C90.8385 17.5256 91.2195 17.2399 92.06 17.1839L93.5504 17.0886V17.5985C93.5504 18.3549 92.878 18.932 91.9704 18.932ZM91.6622 19.9461C92.4634 19.9461 93.1302 19.5988 93.4944 18.988H93.5896V19.8453H94.7495V15.6766C94.7495 14.3879 93.8866 13.6259 92.357 13.6259C90.973 13.6259 89.9869 14.2983 89.8636 15.3461H91.029C91.1635 14.9146 91.6286 14.6681 92.3009 14.6681C93.1246 14.6681 93.5504 15.0323 93.5504 15.6766V16.2033L91.8975 16.2986C90.4463 16.3882 89.6283 17.0214 89.6283 18.1196C89.6283 19.2346 90.4855 19.9461 91.6622 19.9461Z" fill="white"/>
<path d="M98.8374 19.9461C99.6779 19.9461 100.389 19.5483 100.754 18.8816H100.849V19.8453H102.003V11.3623H100.798V14.7129H100.709C100.378 14.0406 99.6723 13.6427 98.8374 13.6427C97.2966 13.6427 96.3049 14.8642 96.3049 16.7916C96.3049 18.7247 97.2854 19.9461 98.8374 19.9461ZM99.1792 14.7241C100.188 14.7241 100.821 15.5254 100.821 16.7972C100.821 18.0747 100.193 18.8648 99.1792 18.8648C98.1595 18.8648 97.5487 18.0859 97.5487 16.7916C97.5487 15.5085 98.1651 14.7241 99.1792 14.7241Z" fill="white"/>
<path d="M109.815 19.963C111.597 19.963 112.689 18.7695 112.689 16.7916C112.689 14.825 111.591 13.6259 109.815 13.6259C108.033 13.6259 106.935 14.825 106.935 16.7916C106.935 18.7695 108.028 19.963 109.815 19.963ZM109.815 18.8928C108.767 18.8928 108.179 18.1252 108.179 16.7916C108.179 15.4693 108.767 14.6961 109.815 14.6961C110.857 14.6961 111.451 15.4693 111.451 16.7916C111.451 18.1196 110.857 18.8928 109.815 18.8928Z" fill="white"/>
<path d="M114.284 19.8453H115.489V16.2762C115.489 15.3236 116.054 14.7297 116.945 14.7297C117.836 14.7297 118.262 15.2172 118.262 16.1977V19.8453H119.467V15.8952C119.467 14.444 118.716 13.6259 117.354 13.6259C116.435 13.6259 115.83 14.0349 115.533 14.7129H115.444V13.7436H114.284V19.8453Z" fill="white"/>
<path d="M125.015 12.2252V13.7716H124.045V14.7858H125.015V18.2316C125.015 19.4083 125.547 19.8789 126.886 19.8789C127.122 19.8789 127.346 19.8509 127.542 19.8173V18.8143C127.374 18.8311 127.267 18.8423 127.082 18.8423C126.483 18.8423 126.219 18.5622 126.219 17.9234V14.7858H127.542V13.7716H126.219V12.2252H125.015Z" fill="white"/>
<path d="M129.159 19.8453H130.363V16.2818C130.363 15.3573 130.913 14.7353 131.899 14.7353C132.75 14.7353 133.204 15.2284 133.204 16.2033V19.8453H134.409V15.9064C134.409 14.4552 133.608 13.6315 132.308 13.6315C131.389 13.6315 130.744 14.0406 130.447 14.7241H130.352V11.3623H129.159V19.8453Z" fill="white"/>
<path d="M138.755 14.6513C139.645 14.6513 140.228 15.2732 140.256 16.2313H137.174C137.242 15.2788 137.864 14.6513 138.755 14.6513ZM140.251 18.198C140.026 18.6743 139.528 18.9376 138.799 18.9376C137.836 18.9376 137.214 18.2596 137.174 17.1895V17.1222H141.483V16.702C141.483 14.7858 140.458 13.6259 138.76 13.6259C137.04 13.6259 135.947 14.8642 135.947 16.8141C135.947 18.7639 137.018 19.963 138.766 19.963C140.161 19.963 141.136 19.2906 141.41 18.198H140.251Z" fill="white"/>
<path d="M33.4373 27.4059C33.4665 25.1366 34.6853 22.9893 36.6187 21.8007C35.399 20.0587 33.3561 18.9543 31.2306 18.8878C28.9636 18.6498 26.7659 20.2443 25.6107 20.2443C24.4331 20.2443 22.6545 18.9114 20.7392 18.9508C18.2427 19.0315 15.9154 20.4509 14.7008 22.6335C12.0899 27.1538 14.0374 33.7972 16.5384 37.4512C17.7897 39.2404 19.2521 41.239 21.1657 41.1681C23.0382 41.0905 23.7376 39.9741 25.9979 39.9741C28.2372 39.9741 28.8933 41.1681 30.8457 41.1231C32.855 41.0904 34.121 39.3259 35.3284 37.5197C36.2275 36.2448 36.9193 34.8358 37.3783 33.3448C35.017 32.3461 33.4401 29.9698 33.4373 27.4059Z" fill="white"/>
<path d="M29.7496 16.4848C30.8451 15.1696 31.3849 13.4792 31.2542 11.7725C29.5804 11.9483 28.0343 12.7482 26.9239 14.0129C25.8381 15.2486 25.2731 16.9093 25.3799 18.5508C27.0543 18.5681 28.7003 17.7898 29.7496 16.4848Z" fill="white"/>
<rect x="0.5" y="0.5" width="161" height="53" rx="6.5" stroke="#A6A6A6"/>
</svg>
