<svg width="41" height="62" viewBox="0 0 41 62" fill="none" xmlns="http://www.w3.org/2000/svg">
<g clip-path="url(#clip0_8862_392)">
<path d="M24.65 10.6143L24.6121 21.1135L24.2703 21.7514C23.8655 22.5168 23.3719 23.0781 22.7013 23.5119C22.4355 23.6905 19.1074 24.9407 15.3111 26.2801C6.74414 29.3291 6.71883 29.3291 5.5673 30.0819C3.07439 31.702 1.29013 34.1386 0.480256 37.0601L0.189207 38.0805L0.151244 49.9704L0.113281 61.8728H5.31421H10.5025V52.4579C10.5025 42.0099 10.5025 42.1119 11.3503 40.5811C11.9324 39.5222 13.046 38.425 14.0583 37.9148C14.5013 37.6979 18.1963 36.3329 22.271 34.8785C26.3457 33.437 29.9902 32.0847 30.3824 31.8678C32.521 30.7325 34.1661 28.5637 34.7988 26.0761C35.0392 25.1321 35.0519 24.6091 35.0519 12.6045V0.12793H29.8636H24.6753L24.65 10.6143Z" fill="white"/>
<path d="M0.139608 5.76586C0.164916 12.1062 0.316768 19.8754 0.405349 19.9774C0.455966 20.0157 3.06276 19.1482 6.20103 18.0383L11.9081 16.0099L11.8702 11.0346C11.8322 6.21236 11.8195 6.03377 11.5412 5.33212C11.1995 4.47738 10.3137 3.44405 9.52912 2.97204C8.51678 2.3852 7.84609 2.2959 3.83467 2.2959H0.126953L0.139608 5.76586Z" fill="white"/>
<path d="M26.7255 44.8286C24.8401 45.6068 23.3341 46.2956 23.0558 46.5254C22.0941 47.3035 21.6512 48.9236 22.0561 50.0974C22.1573 50.3907 23.7391 53.1718 25.5613 56.2591L28.8768 61.8722H34.8876C38.1904 61.8722 40.8604 61.8339 40.8351 61.7702C40.0885 60.4179 30.0663 43.5018 30.003 43.5147C29.9651 43.5147 28.4844 44.1143 26.7255 44.8286Z" fill="white"/>
</g>
<defs>
<clipPath id="clip0_8862_392">
<rect width="41" height="62" fill="white"/>
</clipPath>
</defs>
</svg>
