<svg width="177" height="54" viewBox="0 0 177 54" fill="none" xmlns="http://www.w3.org/2000/svg">
<rect x="0.5" y="0.5" width="176" height="53" rx="5.5" fill="black"/>
<path fill-rule="evenodd" clip-rule="evenodd" d="M13.3458 10.0453C12.9496 10.4647 12.7168 11.1141 12.7168 11.9569V42.0442C12.7168 42.887 12.9496 43.5364 13.3458 43.9558L13.4466 44.0538L30.3011 27.1993V26.8018L13.4466 9.94727L13.3458 10.0453Z" fill="#00D7FE"/>
<mask id="mask0_8892_372" style="mask-type:alpha" maskUnits="userSpaceOnUse" x="30" y="21" width="15" height="12">
<path d="M35.9171 32.8197L30.3008 27.1993V26.8017L35.9199 21.1826L42.703 25.0358C44.6037 26.1168 44.6037 27.8841 42.703 28.9638L36.0465 32.7462L35.9171 32.8197Z" fill="white"/>
</mask>
<g mask="url(#mask0_8892_372)">
<path fill-rule="evenodd" clip-rule="evenodd" d="M35.9171 32.8197L30.3008 27.1993V26.8017L35.9199 21.1826L42.703 25.0358C44.6037 26.1168 44.6037 27.8841 42.703 28.9638L36.0465 32.7462L35.9171 32.8197Z" fill="url(#paint0_linear_8892_372)"/>
</g>
<mask id="mask1_8892_372" style="mask-type:alpha" maskUnits="userSpaceOnUse" x="13" y="27" width="24" height="18">
<path d="M36.0466 32.7457L30.3009 27L13.3457 43.9552C13.9734 44.6183 15.0081 44.7 16.1736 44.0383L36.0466 32.7457Z" fill="white"/>
</mask>
<g mask="url(#mask1_8892_372)">
<path fill-rule="evenodd" clip-rule="evenodd" d="M36.0466 32.7457L30.3009 27L13.3457 43.9552C13.9734 44.6183 15.0081 44.7 16.1736 44.0383L36.0466 32.7457Z" fill="url(#paint1_linear_8892_372)"/>
</g>
<mask id="mask2_8892_372" style="mask-type:alpha" maskUnits="userSpaceOnUse" x="13" y="9" width="24" height="18">
<path d="M36.0466 21.2547L16.1736 9.96206C15.0081 9.30036 13.9734 9.38205 13.3457 10.0451L30.3009 27.0004L36.0466 21.2547Z" fill="white"/>
</mask>
<g mask="url(#mask2_8892_372)">
<path fill-rule="evenodd" clip-rule="evenodd" d="M36.0466 21.2547L16.1736 9.96206C15.0081 9.30036 13.9734 9.38205 13.3457 10.0451L30.3009 27.0004L36.0466 21.2547Z" fill="url(#paint2_linear_8892_372)"/>
</g>
<path fill-rule="evenodd" clip-rule="evenodd" d="M141.955 41.9134H144.496V24.8928H141.955V41.9134ZM164.839 31.0238L161.927 38.4033H161.839L158.817 31.0238H156.08L160.613 41.3374L158.028 47.0749H160.679L167.664 31.0238H164.839ZM150.431 39.98C149.598 39.98 148.438 39.5647 148.438 38.5354C148.438 37.2215 149.884 36.7177 151.131 36.7177C152.249 36.7177 152.773 36.9587 153.452 37.2868C153.255 38.8635 151.897 39.98 150.431 39.98ZM150.737 30.6521C148.898 30.6521 146.993 31.4622 146.205 33.2581L148.46 34.1989C148.942 33.2581 149.839 32.9503 150.781 32.9503C152.095 32.9503 153.431 33.7387 153.452 35.1411V35.3153C152.992 35.0526 152.008 34.6591 150.803 34.6591C148.372 34.6591 145.897 35.9947 145.897 38.4904C145.897 40.7683 147.89 42.236 150.123 42.236C151.832 42.236 152.773 41.4695 153.365 40.5709H153.452V41.8848H155.904V35.3603C155.904 32.3377 153.65 30.6521 150.737 30.6521ZM135.036 33.096H131.423V27.2618H135.036C136.936 27.2618 138.014 28.8344 138.014 30.1783C138.014 31.4976 136.936 33.096 135.036 33.096ZM134.971 24.8928H128.883V41.9134H131.423V35.4651H134.971C137.786 35.4651 140.554 33.4255 140.554 30.1783C140.554 26.931 137.786 24.8928 134.971 24.8928ZM101.775 39.9827C100.02 39.9827 98.551 38.5136 98.551 36.4958C98.551 34.4562 100.02 32.964 101.775 32.964C103.508 32.964 104.867 34.4562 104.867 36.4958C104.867 38.5136 103.508 39.9827 101.775 39.9827ZM104.692 31.9768H104.604C104.034 31.2974 102.938 30.6834 101.556 30.6834C98.6599 30.6834 96.0063 33.2267 96.0063 36.4958C96.0063 39.7417 98.6599 42.2646 101.556 42.2646C102.938 42.2646 104.034 41.6506 104.604 40.948H104.692V41.7813C104.692 43.9979 103.508 45.1824 101.6 45.1824C100.042 45.1824 99.0766 44.0632 98.6817 43.1197L96.4665 44.0414C97.1023 45.5773 98.792 47.463 101.6 47.463C104.583 47.463 107.106 45.708 107.106 41.4314V31.0333H104.692V31.9768ZM108.861 41.9134H111.405V24.8914H108.861V41.9134ZM115.155 36.2984C115.09 34.0614 116.888 32.9204 118.182 32.9204C119.192 32.9204 120.047 33.4242 120.332 34.1485L115.155 36.2984ZM123.052 34.3677C122.57 33.0742 121.099 30.6834 118.095 30.6834C115.111 30.6834 112.633 33.0293 112.633 36.474C112.633 39.7199 115.09 42.2646 118.379 42.2646C121.034 42.2646 122.57 40.6417 123.206 39.6981L121.232 38.3815C120.574 39.3469 119.674 39.9827 118.379 39.9827C117.086 39.9827 116.164 39.3904 115.572 38.229L123.315 35.0267L123.052 34.3677ZM61.3633 32.4602V34.9164H67.2411C67.0654 36.2984 66.6052 37.3073 65.904 38.0098C65.0476 38.8649 63.7092 39.8071 61.3633 39.8071C57.7443 39.8071 54.9137 36.8906 54.9137 33.2717C54.9137 29.6513 57.7443 26.7349 61.3633 26.7349C63.3158 26.7349 64.7413 27.5028 65.7938 28.4899L67.527 26.7567C66.0565 25.353 64.1055 24.2773 61.3633 24.2773C56.406 24.2773 52.2383 28.3143 52.2383 33.2717C52.2383 38.229 56.406 42.2646 61.3633 42.2646C64.0387 42.2646 66.0565 41.3878 67.6359 39.7417C69.2589 38.1187 69.764 35.8382 69.764 33.9946C69.764 33.4242 69.7204 32.8986 69.6319 32.4602H61.3633ZM76.4478 39.9827C74.6928 39.9827 73.1787 38.5354 73.1787 36.474C73.1787 34.3895 74.6928 32.964 76.4478 32.964C78.2015 32.964 79.7155 34.3895 79.7155 36.474C79.7155 38.5354 78.2015 39.9827 76.4478 39.9827ZM76.4478 30.6834C73.2441 30.6834 70.634 33.1178 70.634 36.474C70.634 39.8071 73.2441 42.2646 76.4478 42.2646C79.6501 42.2646 82.2602 39.8071 82.2602 36.474C82.2602 33.1178 79.6501 30.6834 76.4478 30.6834ZM89.1278 39.9827C87.3728 39.9827 85.8588 38.5354 85.8588 36.474C85.8588 34.3895 87.3728 32.964 89.1278 32.964C90.8828 32.964 92.3955 34.3895 92.3955 36.474C92.3955 38.5354 90.8828 39.9827 89.1278 39.9827ZM89.1278 30.6834C85.9255 30.6834 83.3154 33.1178 83.3154 36.474C83.3154 39.8071 85.9255 42.2646 89.1278 42.2646C92.3301 42.2646 94.9402 39.8071 94.9402 36.474C94.9402 33.1178 92.3301 30.6834 89.1278 30.6834Z" fill="#FFFFFE"/>
<path d="M59.6875 13.2392V16.4284C59.5798 16.5879 59.4083 16.7674 59.173 16.9668C58.9376 17.1623 58.6125 17.3338 58.1977 17.4814C57.7868 17.625 57.2563 17.6968 56.6061 17.6968C56.0756 17.6968 55.5869 17.6051 55.1402 17.4216C54.6974 17.2341 54.3125 16.9629 53.9854 16.6078C53.6623 16.2489 53.411 15.8141 53.2315 15.3035C53.056 14.7889 52.9682 14.2065 52.9682 13.5564V12.8802C52.9682 12.2301 53.044 11.6497 53.1956 11.1391C53.3512 10.6285 53.5785 10.1957 53.8777 9.84071C54.1769 9.48171 54.5439 9.21047 54.9786 9.02698C55.4134 8.8395 55.912 8.74576 56.4745 8.74576C57.1406 8.74576 57.6971 8.86144 58.1438 9.0928C58.5946 9.32016 58.9456 9.63528 59.1969 10.0382C59.4522 10.441 59.6157 10.8998 59.6875 11.4143H58.5327C58.4809 11.0992 58.3772 10.812 58.2216 10.5527C58.07 10.2934 57.8526 10.086 57.5694 9.93046C57.2862 9.77091 56.9212 9.69113 56.4745 9.69113C56.0716 9.69113 55.7226 9.76492 55.4274 9.91251C55.1322 10.0601 54.8889 10.2715 54.6974 10.5467C54.506 10.822 54.3624 11.155 54.2666 11.546C54.1749 11.9369 54.129 12.3776 54.129 12.8683V13.5564C54.129 14.059 54.1869 14.5077 54.3025 14.9026C54.4222 15.2975 54.5917 15.6346 54.8111 15.9138C55.0305 16.189 55.2918 16.3984 55.5949 16.542C55.9021 16.6856 56.2411 16.7574 56.6121 16.7574C57.0229 16.7574 57.356 16.7235 57.6113 16.6557C57.8666 16.5839 58.066 16.5002 58.2096 16.4044C58.3532 16.3047 58.4629 16.211 58.5387 16.1232V14.1726H56.5223V13.2392H59.6875ZM66.7691 16.6378V17.5771H62.156V16.6378H66.7691ZM62.3893 8.86543V17.5771H61.2346V8.86543H62.3893ZM66.1588 12.611V13.5504H62.156V12.611H66.1588ZM66.7093 8.86543V9.81079H62.156V8.86543H66.7093ZM71.1702 8.86543V17.5771H70.0334V8.86543H71.1702ZM73.9704 8.86543V9.81079H67.2392V8.86543H73.9704ZM78.5663 8.86543V17.5771H77.4116V8.86543H78.5663ZM83.3384 8.86543V17.5771H82.2016V8.86543H83.3384ZM86.1386 8.86543V9.81079H79.4074V8.86543H86.1386ZM96.2033 12.9461V13.4965C96.2033 14.1507 96.1215 14.7371 95.958 15.2556C95.7944 15.7742 95.5591 16.2149 95.2519 16.5779C94.9448 16.9409 94.5758 17.2181 94.145 17.4096C93.7182 17.6011 93.2395 17.6968 92.709 17.6968C92.1944 17.6968 91.7218 17.6011 91.291 17.4096C90.8641 17.2181 90.4932 16.9409 90.1781 16.5779C89.8669 16.2149 89.6256 15.7742 89.4541 15.2556C89.2826 14.7371 89.1968 14.1507 89.1968 13.4965V12.9461C89.1968 12.2919 89.2806 11.7075 89.4481 11.1929C89.6196 10.6744 89.8609 10.2336 90.1721 9.87063C90.4832 9.50365 90.8522 9.22443 91.279 9.03296C91.7098 8.8415 92.1825 8.74576 92.697 8.74576C93.2276 8.74576 93.7062 8.8415 94.133 9.03296C94.5638 9.22443 94.9328 9.50365 95.24 9.87063C95.5511 10.2336 95.7884 10.6744 95.952 11.1929C96.1195 11.7075 96.2033 12.2919 96.2033 12.9461ZM95.0605 13.4965V12.9341C95.0605 12.4155 95.0066 11.9568 94.8989 11.5579C94.7952 11.159 94.6416 10.824 94.4382 10.5527C94.2348 10.2815 93.9854 10.0761 93.6903 9.93644C93.3991 9.79683 93.068 9.72703 92.697 9.72703C92.338 9.72703 92.0129 9.79683 91.7218 9.93644C91.4346 10.0761 91.1872 10.2815 90.9798 10.5527C90.7764 10.824 90.6188 11.159 90.5071 11.5579C90.3955 11.9568 90.3396 12.4155 90.3396 12.9341V13.4965C90.3396 14.0191 90.3955 14.4818 90.5071 14.8847C90.6188 15.2835 90.7784 15.6206 90.9858 15.8958C91.1972 16.1671 91.4465 16.3725 91.7337 16.5121C92.0249 16.6517 92.35 16.7215 92.709 16.7215C93.084 16.7215 93.417 16.6517 93.7082 16.5121C93.9994 16.3725 94.2447 16.1671 94.4442 15.8958C94.6476 15.6206 94.8012 15.2835 94.9049 14.8847C95.0086 14.4818 95.0605 14.0191 95.0605 13.4965ZM104.266 8.86543V17.5771H103.105L98.7196 10.8579V17.5771H97.5648V8.86543H98.7196L103.123 15.6027V8.86543H104.266Z" fill="white"/>
<rect x="0.5" y="0.5" width="176" height="53" rx="5.5" stroke="#A6A6A6"/>
<defs>
<linearGradient id="paint0_linear_8892_372" x1="41.4665" y1="27.0009" x2="30.3008" y2="27.0009" gradientUnits="userSpaceOnUse">
<stop stop-color="#FFBC00"/>
<stop offset="1" stop-color="#FFDA03"/>
</linearGradient>
<linearGradient id="paint1_linear_8892_372" x1="32.9241" y1="32.4064" x2="18.3509" y2="44.4186" gradientUnits="userSpaceOnUse">
<stop stop-color="#E22652"/>
<stop offset="1" stop-color="#FF3A44"/>
</linearGradient>
<linearGradient id="paint2_linear_8892_372" x1="15.9131" y1="12.0863" x2="25.6294" y2="20.6298" gradientUnits="userSpaceOnUse">
<stop stop-color="#0ED574"/>
<stop offset="1" stop-color="#07F076"/>
</linearGradient>
</defs>
</svg>
