<svg width="24" height="25" viewBox="0 0 24 25" fill="none" xmlns="http://www.w3.org/2000/svg">
<path fill-rule="evenodd" clip-rule="evenodd" d="M10.888 0.0276181C8.07618 0.301053 5.50415 1.51272 3.50754 3.50454C1.60891 5.39862 0.463411 7.73136 0.0609146 10.5236C0.0134322 10.8531 0 12.3182 0 17.1692V23.3922L0.11145 23.5714C0.17274 23.6701 0.308612 23.8075 0.413299 23.8767L0.603745 24.0027H6.83009C11.6839 24.0027 13.1497 23.9893 13.4792 23.9418C16.2696 23.5396 18.5853 22.4035 20.492 20.5014C22.3575 18.6403 23.4957 16.3596 23.9127 13.6468C24.0291 12.8902 24.0291 11.1158 23.9127 10.3592C23.496 7.64814 22.3673 5.38439 20.4982 3.51079C18.6497 1.65785 16.342 0.501127 13.6905 0.0985364C13.1037 0.00944236 11.494 -0.0312769 10.888 0.0276181ZM13.5261 1.97407C15.6942 2.31278 17.6055 3.28521 19.1615 4.84123C20.7297 6.40942 21.6904 8.30777 22.0372 10.5236C22.0942 10.8882 22.118 11.3235 22.118 12.003C22.118 12.6825 22.0942 13.1178 22.0372 13.4824C21.6904 15.6982 20.7297 17.5966 19.1615 19.1647C17.6147 20.7116 15.7962 21.6422 13.5477 22.0376C13.1541 22.1069 12.4625 22.1178 7.47732 22.1336L1.85125 22.1515L1.8691 16.5254C1.88492 11.5403 1.89582 10.8487 1.96509 10.455C2.36055 8.20651 3.29117 6.388 4.83799 4.84123C6.56774 3.11144 8.61868 2.15582 11.1778 1.88727C11.5599 1.84716 13.0714 1.90305 13.5261 1.97407ZM11.1172 6.60559C9.79222 6.81027 8.76789 7.63663 8.63949 8.6046C8.56256 9.18476 8.98318 9.65935 9.57913 9.66471C9.89423 9.66757 10.0018 9.59477 10.3329 9.15494C10.7699 8.5743 11.1677 8.39992 11.9528 8.44482C12.8371 8.49535 13.3394 8.9713 13.2466 9.67076C13.1799 10.1739 12.9272 10.4993 12.0715 11.1839C11.3696 11.7455 11.056 12.1774 10.8403 12.8797C10.7765 13.0871 10.756 13.3134 10.7556 13.8112C10.7551 14.5468 10.8131 14.7317 11.0863 14.8651C11.2791 14.9593 11.7296 14.9847 12.027 14.9181C12.3328 14.8497 12.5624 14.6221 12.565 14.3849C12.5659 14.3018 12.5849 14.0294 12.6073 13.7796C12.6625 13.1621 12.8188 12.8674 13.3347 12.4086C14.3922 11.4681 14.6936 11.1221 15.0258 10.4674C15.8581 8.82679 14.939 7.15965 12.933 6.67158C12.5647 6.58197 11.5168 6.54393 11.1172 6.60559ZM11.3105 16.1543C10.6939 16.3543 10.3638 16.8419 10.4148 17.4774C10.4984 18.519 11.707 18.9815 12.4729 18.2651C12.7262 18.0282 12.8921 17.6688 12.8921 17.3571C12.8921 16.9108 12.5362 16.3785 12.1222 16.2055C11.8826 16.1054 11.5299 16.0832 11.3105 16.1543Z" fill="black"/>
</svg>
