<svg width="24" height="24" viewBox="0 0 24 24" fill="none" xmlns="http://www.w3.org/2000/svg">
<path fill-rule="evenodd" clip-rule="evenodd" d="M5.15752 0.0689852C3.81358 0.269339 2.75079 0.806989 1.78038 1.77745C0.782316 2.77551 0.234542 3.88981 0.0532167 5.29092C-0.0177389 5.83926 -0.0177389 18.1549 0.0532167 18.7032C0.234542 20.1043 0.782316 21.2186 1.78038 22.2167C2.77845 23.2148 3.89274 23.7625 5.29385 23.9439C5.84219 24.0148 18.1578 24.0148 18.7061 23.9439C20.1073 23.7625 21.2216 23.2148 22.2196 22.2167C23.2177 21.2186 23.7655 20.1043 23.9468 18.7032C24.0177 18.1549 24.0177 5.83926 23.9468 5.29092C23.7655 3.88981 23.2177 2.77551 22.2196 1.77745C21.2216 0.779385 20.1073 0.231611 18.7061 0.0502856C18.1056 -0.0274188 5.68912 -0.0103126 5.15752 0.0689852ZM19.2048 2.18861C19.732 2.37223 19.8502 2.43152 20.2839 2.72996C20.9801 3.20912 21.5273 3.95284 21.803 4.79498L21.9591 5.27175V11.9971C21.9591 18.4339 21.9553 18.7344 21.8715 19.0036C21.554 20.0227 21.0145 20.7744 20.2098 21.3187C19.8663 21.551 19.5642 21.6913 19.0747 21.8458L18.7253 21.9562H12H5.27469L4.79791 21.8C3.48435 21.37 2.566 20.4079 2.1285 19.0036C2.04466 18.7344 2.04091 18.4339 2.04091 11.9971C2.04091 5.56026 2.04466 5.25971 2.1285 4.99056C2.46191 3.92027 3.04193 3.14337 3.91266 2.60066C4.27807 2.37293 4.90482 2.12829 5.29428 2.06137C5.41238 2.04107 8.49323 2.02753 12.1406 2.03123L18.7722 2.03798L19.2048 2.18861ZM18.1864 4.04925C17.8523 4.12161 17.6614 4.22542 17.4369 4.45675C17.1308 4.77221 17.038 5.01694 17.039 5.50609C17.0398 5.8708 17.0567 5.95961 17.1639 6.16221C17.4223 6.65084 17.8594 6.93663 18.4025 6.97211C18.7989 6.99798 19.01 6.94048 19.3451 6.71533C20.2778 6.08868 20.1706 4.65884 19.1548 4.17546C18.8077 4.01025 18.532 3.97435 18.1864 4.04925ZM11.233 6.04809C8.96845 6.36196 7.03887 7.94051 6.33405 10.0559C6.09325 10.7785 6.02717 11.1966 6.02717 11.9971C6.02717 12.7981 6.09302 13.2143 6.33499 13.942C6.89902 15.6383 8.36205 17.0978 10.068 17.6661C10.7812 17.9037 11.2021 17.9699 12 17.9699C12.7979 17.9699 13.2188 17.9037 13.932 17.6661C15.6379 17.0978 17.101 15.6383 17.665 13.942C17.907 13.2143 17.9728 12.7981 17.9728 11.9971C17.9728 10.9467 17.7684 10.0892 17.3142 9.23388C16.4498 7.60631 14.9554 6.48761 13.1482 6.11507C12.6972 6.02208 11.6778 5.98642 11.233 6.04809ZM13.2059 8.19448C13.7057 8.36048 13.8409 8.42548 14.2261 8.68521C15.0123 9.21532 15.545 9.94929 15.8488 10.9212C15.9435 11.2241 15.958 11.3675 15.958 11.9971C15.958 12.7707 15.9024 13.0541 15.6295 13.6714C15.2818 14.4575 14.4585 15.2797 13.6699 15.6285C13.0574 15.8994 12.7723 15.9551 12 15.9551C11.2277 15.9551 10.9426 15.8994 10.3301 15.6285C9.54149 15.2797 8.71819 14.4575 8.37053 13.6714C8.09758 13.0541 8.04195 12.7707 8.04195 11.9971C8.04195 11.3675 8.05648 11.2241 8.15115 10.9212C8.31064 10.4112 8.45086 10.1168 8.71987 9.72771C9.24975 8.96126 9.99154 8.42862 10.9007 8.16181C11.3607 8.02684 11.4323 8.01957 12.1406 8.03607C12.698 8.04905 12.8248 8.06794 13.2059 8.19448Z" fill="white"/>
</svg>
