<svg width="300" height="198" viewBox="0 0 300 198" fill="none" xmlns="http://www.w3.org/2000/svg">
<g opacity="0.6">
<path d="M94.4084 75.8652C94.254 75.8138 94.1511 75.7108 94.0482 75.5564C93.9453 75.402 93.9453 75.299 93.9453 75.1446C93.9453 74.9387 94.0482 74.7329 94.2026 74.5785C94.3569 74.4241 94.5627 74.3212 94.7685 74.3212H98.6272V70.4095C98.6272 70.2036 98.7301 69.9977 98.8844 69.8433C99.0388 69.6889 99.2446 69.5859 99.4504 69.5859C99.6562 69.5859 99.862 69.6889 100.016 69.8433C100.171 69.9977 100.274 70.2036 100.274 70.4095V75.9166H94.82C94.6142 75.9166 94.5113 75.9167 94.4084 75.8652Z" fill="#110580"/>
<path d="M15.075 75.8145C14.9207 75.763 14.8178 75.6599 14.7149 75.5054C14.612 75.3509 14.5605 75.248 14.612 75.0936C14.612 74.8876 14.7149 74.6815 14.8178 74.527C14.9721 74.3725 15.1779 74.2695 15.3837 74.2695H25.3134C25.5192 74.2695 25.725 74.3725 25.8793 74.527C26.0337 74.6815 26.0851 74.8876 26.0851 75.0936C26.0851 75.2995 25.9822 75.5055 25.8793 75.66C25.725 75.8144 25.5192 75.9174 25.3134 75.9174H15.3837C15.2808 75.8659 15.1779 75.866 15.075 75.8145ZM34.8829 75.8145C34.7286 75.763 34.5742 75.6085 34.4713 75.454C34.3684 75.2995 34.3684 75.0935 34.4199 74.939C34.4713 74.7845 34.5742 74.5785 34.6771 74.4755C34.8315 74.3725 34.9858 74.3211 35.1916 74.3211H45.1213C45.3271 74.3211 45.5329 74.4241 45.6872 74.5786C45.8416 74.7331 45.893 74.939 45.893 75.145C45.893 75.351 45.7901 75.557 45.6872 75.7115C45.5329 75.866 45.3271 75.969 45.1213 75.969H35.1916C35.0887 75.866 34.9858 75.866 34.8829 75.8145ZM54.7423 75.8145C54.5879 75.763 54.4336 75.6085 54.3307 75.454C54.2278 75.2995 54.2278 75.0935 54.2792 74.939C54.3307 74.7845 54.4336 74.5785 54.5365 74.4755C54.6908 74.3725 54.8452 74.3211 55.051 74.3211H64.9807C65.1864 74.3211 65.3922 74.4241 65.5466 74.5786C65.7009 74.7331 65.7524 74.939 65.7524 75.145C65.7524 75.351 65.6495 75.557 65.5466 75.7115C65.3922 75.866 65.1864 75.969 64.9807 75.969H55.051C54.9481 75.866 54.8452 75.866 54.7423 75.8145ZM74.5502 75.8145C74.3958 75.763 74.2929 75.6599 74.19 75.5054C74.0871 75.3509 74.0871 75.248 74.0871 75.0936C74.0871 74.8876 74.19 74.6815 74.3444 74.527C74.4987 74.3725 74.7045 74.2695 74.9103 74.2695H84.7886C84.9943 74.2695 85.2001 74.3725 85.3545 74.527C85.5088 74.6815 85.5603 74.8876 85.5603 75.0936C85.5603 75.2995 85.4574 75.5055 85.3545 75.66C85.2001 75.8144 84.9943 75.9174 84.7886 75.9174H74.9103C74.8074 75.8659 74.6531 75.866 74.5502 75.8145Z" fill="#110580"/>
<path d="M0 75.8649V70.3576C0 70.1517 0.102879 69.9459 0.205778 69.7915C0.360125 69.6371 0.56594 69.5342 0.771736 69.5342C0.977533 69.5342 1.18332 69.6371 1.33766 69.7915C1.49201 69.9459 1.54347 70.1517 1.54347 70.3576V74.2693H5.40215C5.60795 74.2693 5.81373 74.3722 5.96808 74.5266C6.12243 74.681 6.22533 74.8869 6.22533 75.0928C6.22533 75.2987 6.12243 75.5045 5.96808 75.6589C5.81373 75.8133 5.60795 75.9162 5.40215 75.9162H0V75.8649Z" fill="#110580"/>
<path d="M0.51457 61.8141C0.360196 61.7627 0.257274 61.6597 0.154358 61.5053C0.0514424 61.3509 -2.18379e-05 61.2479 0.0514361 61.0935V51.8291C0.0514361 51.6233 0.154364 51.4175 0.25728 51.263C0.411654 51.1086 0.617473 51.0057 0.823305 51.0057C1.02914 51.0057 1.23496 51.1086 1.38933 51.263C1.5437 51.4175 1.59517 51.6233 1.59517 51.8291V61.0935C1.59517 61.2994 1.49225 61.5053 1.38933 61.6597C1.23496 61.8141 1.02914 61.917 0.823305 61.917C0.720389 61.917 0.617486 61.8656 0.51457 61.8141ZM0.51457 43.2854C0.360196 43.2339 0.257274 43.1309 0.154358 42.9765C0.0514424 42.8221 -2.18379e-05 42.7192 0.0514361 42.5648V33.3004C0.0514361 33.0945 0.154364 32.8887 0.25728 32.7343C0.411654 32.5799 0.617473 32.477 0.823305 32.477C1.02914 32.477 1.23496 32.5799 1.38933 32.7343C1.5437 32.8887 1.59517 33.0945 1.59517 33.3004V42.5648C1.59517 42.7706 1.49225 42.9766 1.38933 43.131C1.23496 43.2854 1.02914 43.3883 0.823305 43.3883C0.720389 43.3368 0.617486 43.3369 0.51457 43.2854ZM0.51457 24.7567C0.360196 24.7052 0.257274 24.6022 0.154358 24.4478C0.0514424 24.2934 -2.18379e-05 24.1904 0.0514361 24.036V14.7717C0.0514361 14.5658 0.154364 14.36 0.25728 14.2056C0.411654 14.0512 0.617473 13.9482 0.823305 13.9482C1.02914 13.9482 1.23496 14.0512 1.38933 14.2056C1.5437 14.36 1.59517 14.5658 1.59517 14.7717V24.036C1.59517 24.2419 1.49225 24.4478 1.38933 24.6022C1.23496 24.7566 1.02914 24.8596 0.823305 24.8596C0.720389 24.8081 0.617486 24.8081 0.51457 24.7567Z" fill="#110580"/>
<path d="M0.514491 6.22776C0.360144 6.17629 0.257239 6.07331 0.154341 5.9189C0.0514428 5.76449 0 5.66153 0 5.50712V0H5.45359C5.65939 0 5.86517 0.102937 6.01952 0.257343C6.17386 0.41175 6.27676 0.617675 6.27676 0.823549C6.27676 1.02942 6.17386 1.23522 6.01952 1.38963C5.86517 1.54404 5.65939 1.64697 5.45359 1.64697H1.59491V5.55864C1.59491 5.76452 1.492 5.97044 1.3891 6.12485C1.23475 6.27926 1.02897 6.38219 0.823173 6.38219C0.771724 6.27926 0.617389 6.22776 0.514491 6.22776Z" fill="#110580"/>
<path d="M15.1258 1.54485C14.9715 1.49335 14.8171 1.33888 14.7142 1.18439C14.6113 1.0299 14.6113 0.823903 14.6113 0.669409C14.6628 0.463417 14.7657 0.308973 14.92 0.205977C15.0744 0.102981 15.2287 0.0514574 15.4345 0.0514574H25.3642C25.57 0.0514574 25.7758 0.154453 25.9301 0.308948C26.0845 0.463442 26.1874 0.669359 26.1874 0.875351C26.1874 1.08134 26.0845 1.28739 25.9301 1.44188C25.7758 1.59637 25.57 1.69937 25.3642 1.69937H15.4345C15.3316 1.59637 15.2287 1.54485 15.1258 1.54485ZM34.9337 1.5964C34.8308 1.5964 34.7279 1.54493 34.625 1.49343C34.5221 1.44193 34.4707 1.33886 34.4192 1.28736C34.3163 1.13287 34.2649 0.875401 34.3163 0.669409C34.3678 0.463417 34.4707 0.257424 34.6765 0.154428C34.8308 0.0514322 35.0881 -4.06651e-05 35.2939 0.0514574H45.2235C45.4293 0.0514574 45.6351 0.154453 45.7895 0.308948C45.9438 0.463442 46.0467 0.669359 46.0467 0.875351C46.0467 1.08134 45.9438 1.28739 45.7895 1.44188C45.6351 1.59637 45.4293 1.69937 45.2235 1.69937H35.2939C35.1395 1.59637 35.0366 1.5964 34.9337 1.5964ZM54.7931 1.5964C54.6387 1.5449 54.5358 1.44185 54.4329 1.28736C54.33 1.13287 54.33 1.02984 54.33 0.875351C54.33 0.669359 54.4329 0.463442 54.5873 0.308948C54.7416 0.154453 54.9474 0.0514574 55.1532 0.0514574H65.0829C65.2887 0.0514574 65.4945 0.154453 65.6488 0.308948C65.8032 0.463442 65.8546 0.669359 65.8546 0.875351C65.8546 1.08134 65.7517 1.28739 65.6488 1.44188C65.4945 1.59637 65.2887 1.69937 65.0829 1.69937H55.1532C54.9989 1.64787 54.896 1.6479 54.7931 1.5964ZM74.601 1.5964C74.4466 1.5449 74.3437 1.44185 74.2408 1.28736C74.1379 1.13287 74.1379 1.02984 74.1379 0.875351C74.1379 0.669359 74.2408 0.463442 74.3952 0.308948C74.5495 0.154453 74.7553 0.0514574 74.9611 0.0514574H84.8908C85.0966 0.0514574 85.3024 0.154453 85.4567 0.308948C85.6111 0.463442 85.6625 0.669359 85.6625 0.875351C85.6625 1.08134 85.5596 1.28739 85.4567 1.44188C85.3024 1.59637 85.0966 1.69937 84.8908 1.69937H74.9097C74.8068 1.64787 74.7039 1.5964 74.601 1.5964Z" fill="#110580"/>
<path d="M99.0902 6.27916C98.9359 6.22769 98.833 6.12482 98.7301 5.97042C98.6272 5.81601 98.6272 5.71305 98.6272 5.55864V1.64697H94.7685C94.5627 1.64697 94.3569 1.54404 94.2026 1.38963C94.0482 1.23522 93.9453 1.02942 93.9453 0.823549C93.9453 0.617675 94.0482 0.41175 94.2026 0.257343C94.3569 0.102937 94.5627 0 94.7685 0H100.222V5.50713C100.222 5.713 100.119 5.91892 100.016 6.07333C99.862 6.22774 99.6562 6.33067 99.4504 6.33067C99.3475 6.33067 99.1931 6.33062 99.0902 6.27916Z" fill="#110580"/>
<path d="M99.0908 61.9174C98.9364 61.8659 98.8335 61.7629 98.7305 61.6085C98.6276 61.4541 98.5762 61.3513 98.5762 61.1969V51.9325C98.5762 51.7266 98.6791 51.5207 98.8335 51.3663C98.9878 51.2119 99.1937 51.109 99.3995 51.109C99.6053 51.109 99.8112 51.2119 99.9655 51.3663C100.12 51.5207 100.223 51.7266 100.223 51.9325V61.2483C100.223 61.4542 100.12 61.6601 99.9655 61.8145C99.8112 61.9689 99.6053 62.0718 99.3995 62.0718C99.2966 61.9689 99.1937 61.9689 99.0908 61.9174ZM99.0908 43.3372C98.9364 43.2857 98.8335 43.1828 98.7305 43.0284C98.6276 42.874 98.5762 42.771 98.5762 42.6166V33.3523C98.5762 33.1464 98.6791 32.9405 98.8335 32.7861C98.9878 32.6317 99.1937 32.5287 99.3995 32.5287C99.6053 32.5287 99.8112 32.6317 99.9655 32.7861C100.12 32.9405 100.223 33.1464 100.223 33.3523V42.6166C100.223 42.8225 100.12 43.0284 99.9655 43.1828C99.8112 43.3373 99.6053 43.4402 99.3995 43.4402C99.2966 43.4402 99.1937 43.3886 99.0908 43.3372ZM99.0908 24.8084C98.9364 24.757 98.8335 24.6541 98.7305 24.4997C98.6276 24.3453 98.5762 24.2423 98.5762 24.0879V14.8235C98.5762 14.6177 98.6791 14.4117 98.8335 14.2573C98.9878 14.1029 99.1937 14 99.3995 14C99.6053 14 99.8112 14.1029 99.9655 14.2573C100.12 14.4117 100.223 14.6177 100.223 14.8235V24.0879C100.223 24.2938 100.12 24.4997 99.9655 24.6541C99.8112 24.8085 99.6053 24.9115 99.3995 24.9115C99.2966 24.86 99.1937 24.8599 99.0908 24.8084Z" fill="#110580"/>
<path d="M218.402 13.3301H51.3466C45.43 13.3301 40.5938 18.1681 40.5938 24.1385V130.37C40.5938 136.34 45.43 141.178 51.3466 141.178H218.402C224.318 141.178 229.155 136.34 229.155 130.37V24.1385C229.155 18.1681 224.37 13.3301 218.402 13.3301Z" fill="#54A0FF"/>
<path d="M219.172 20.1758H50.5738C48.9789 20.1758 47.7441 21.4625 47.7441 23.0581V129.187C47.7441 130.782 49.0304 132.069 50.5738 132.069H219.172C220.767 132.069 222.002 130.782 222.002 129.187V23.0581C222.002 21.4625 220.716 20.1758 219.172 20.1758Z" fill="#E8EAF7"/>
<path d="M249.734 192.545H20.0134C18.8816 192.545 17.8011 192.236 16.8236 191.721C15.8461 191.155 15.0229 190.383 14.457 189.405C13.891 188.427 13.5823 187.346 13.5309 186.214C13.4794 185.082 13.7367 184.001 14.2511 182.972L37.5576 146.841C38.4322 145.142 39.8214 143.701 41.4163 142.723C43.0627 141.745 44.9148 141.23 46.8184 141.23H222.723C224.627 141.23 226.53 141.745 228.176 142.723C229.823 143.701 231.161 145.142 232.035 146.841L255.342 182.972C255.856 183.949 256.113 185.082 256.062 186.214C256.01 187.346 255.702 188.427 255.136 189.405C254.57 190.383 253.747 191.155 252.769 191.721C251.946 192.236 250.866 192.545 249.734 192.545Z" fill="#54A0FF"/>
<path d="M256.165 185.854C256.216 186.728 256.062 187.603 255.753 188.427C255.444 189.25 254.981 189.971 254.364 190.589C253.746 191.206 253.026 191.721 252.254 192.03C251.483 192.39 250.608 192.544 249.733 192.544H20.0132C19.1385 192.544 18.3154 192.39 17.4922 192.03C16.7204 191.669 15.9487 191.206 15.3827 190.589C14.7653 189.971 14.3023 189.199 13.9936 188.427C13.6849 187.603 13.5306 186.728 13.582 185.854V191.618C13.582 193.316 14.3023 194.963 15.4856 196.147C16.669 197.331 18.3153 198 20.0132 198H249.733C251.431 198 253.026 197.331 254.261 196.096C255.444 194.912 256.165 193.265 256.165 191.566V185.854Z" fill="#2876D8"/>
<path d="M179.608 187.809H90.1895C89.8294 187.809 89.4692 187.706 89.1605 187.552C88.8518 187.397 88.5946 187.14 88.3888 186.831C88.183 186.522 88.0801 186.162 88.0801 185.802C88.0801 185.442 88.1315 185.081 88.3373 184.772L91.8873 173.192C92.196 172.626 92.6076 172.163 93.1221 171.854C93.6366 171.545 94.254 171.391 94.8714 171.391H174.926C175.544 171.391 176.161 171.545 176.675 171.854C177.19 172.163 177.653 172.626 177.91 173.192L181.409 184.772C181.563 185.081 181.666 185.442 181.666 185.802C181.666 186.162 181.563 186.522 181.357 186.831C181.151 187.14 180.894 187.397 180.586 187.552C180.277 187.758 179.968 187.809 179.608 187.809Z" fill="#D8DBF2"/>
<path d="M212.381 167.427H57.3654C56.9538 167.427 56.5422 167.324 56.182 167.118C55.8219 166.912 55.5132 166.604 55.3074 166.243C55.1016 165.883 54.9473 165.471 54.9473 165.059C54.9473 164.648 55.0502 164.236 55.2559 163.824L61.79 150.134C62.1501 149.464 62.6132 148.95 63.2306 148.59C63.8479 148.229 64.5682 148.023 65.2885 148.023H204.51C205.23 148.023 205.95 148.229 206.568 148.59C207.185 148.95 207.7 149.516 208.06 150.134L214.594 163.824C214.8 164.185 214.902 164.648 214.902 165.059C214.902 165.471 214.8 165.935 214.542 166.295C214.337 166.655 214.028 166.964 213.616 167.17C213.205 167.324 212.793 167.427 212.381 167.427Z" fill="#2876D8"/>
<path d="M47.7441 30.1094H222.054V129.187C222.054 129.547 222.002 129.959 221.848 130.268C221.693 130.628 221.488 130.937 221.23 131.194C220.973 131.451 220.664 131.657 220.304 131.812C219.944 131.966 219.584 132.017 219.224 132.017H50.5738C49.8021 132.017 49.0818 131.709 48.5673 131.194C48.0528 130.679 47.7441 129.907 47.7441 129.187V30.1094Z" fill="white"/>
<path d="M101.715 39.2188H83.6045C83.1414 39.2188 82.7812 39.5791 82.7812 40.0423V58.2622C82.7812 58.7254 83.1414 59.0857 83.6045 59.0857H101.715C102.178 59.0857 102.538 58.7254 102.538 58.2622V40.0423C102.538 39.6305 102.178 39.2188 101.715 39.2188Z" fill="#E8E8F7"/>
<path d="M185.166 55.4834H119.723C118.745 55.4834 117.922 56.3069 117.922 57.2848C117.922 58.3142 118.745 59.0862 119.723 59.0862H185.166C186.143 59.0862 186.967 58.2627 186.967 57.2848C186.967 56.3069 186.143 55.4834 185.166 55.4834Z" fill="#E8E8F7"/>
<path d="M166.799 47.3516H119.723C118.745 47.3516 117.922 48.1751 117.922 49.153C117.922 50.1823 118.745 50.9544 119.723 50.9544H166.799C167.776 50.9544 168.599 50.1309 168.599 49.153C168.599 48.1751 167.776 47.3516 166.799 47.3516Z" fill="#E8E8F7"/>
<path d="M175.956 39.2188H119.723C118.745 39.2188 117.922 40.0422 117.922 41.0202C117.922 42.0495 118.745 42.8216 119.723 42.8216H176.008C176.985 42.8216 177.809 41.9981 177.809 41.0202C177.809 40.0422 176.985 39.2188 175.956 39.2188Z" fill="#E8E8F7"/>
<path d="M101.715 71.5928H83.6045C83.1414 71.5928 82.7812 71.953 82.7812 72.4162V90.6362C82.7812 91.0994 83.1414 91.4596 83.6045 91.4596H101.715C102.178 91.4596 102.538 91.0994 102.538 90.6362V72.4162C102.538 71.953 102.178 71.5928 101.715 71.5928Z" fill="#E8E8F7"/>
<path d="M185.166 87.8574H119.723C118.745 87.8574 117.922 88.6809 117.922 89.6588C117.922 90.6882 118.745 91.4602 119.723 91.4602H185.166C186.143 91.4602 186.967 90.6367 186.967 89.6588C186.967 88.6809 186.143 87.8574 185.166 87.8574Z" fill="#E8E8F7"/>
<path d="M166.799 79.7246H119.723C118.745 79.7246 117.922 80.5481 117.922 81.526C117.922 82.5554 118.745 83.3274 119.723 83.3274H166.799C167.776 83.3274 168.599 82.5039 168.599 81.526C168.599 80.5481 167.776 79.7246 166.799 79.7246Z" fill="#E8E8F7"/>
<path d="M175.956 71.5928H119.723C118.745 71.5928 117.922 72.4163 117.922 73.3942C117.922 74.4236 118.745 75.1956 119.723 75.1956H176.008C176.985 75.1956 177.809 74.3721 177.809 73.3942C177.809 72.4163 176.985 71.5928 175.956 71.5928Z" fill="#E8E8F7"/>
<path d="M101.715 103.967H83.6045C83.1414 103.967 82.7812 104.327 82.7812 104.79V123.01C82.7812 123.473 83.1414 123.834 83.6045 123.834H101.715C102.178 123.834 102.538 123.473 102.538 123.01V104.79C102.538 104.327 102.178 103.967 101.715 103.967Z" fill="#E8E8F7"/>
<path d="M185.166 120.23H119.723C118.745 120.23 117.922 121.054 117.922 122.032C117.922 123.061 118.745 123.833 119.723 123.833H185.166C186.143 123.833 186.967 123.01 186.967 122.032C186.967 121.002 186.143 120.23 185.166 120.23Z" fill="#E8E8F7"/>
<path d="M166.799 112.099H119.723C118.745 112.099 117.922 112.922 117.922 113.9C117.922 114.929 118.745 115.701 119.723 115.701H166.799C167.776 115.701 168.599 114.878 168.599 113.9C168.599 112.922 167.776 112.099 166.799 112.099Z" fill="#E8E8F7"/>
<path d="M175.956 103.967H119.723C118.745 103.967 117.922 104.79 117.922 105.768C117.922 106.798 118.745 107.57 119.723 107.57H176.008C176.985 107.57 177.809 106.746 177.809 105.768C177.809 104.79 176.985 103.967 175.956 103.967Z" fill="#E8E8F7"/>
<path d="M54.1236 26.9695C55.1526 26.9695 55.9758 26.146 55.9758 25.1166C55.9758 24.0872 55.1526 23.2637 54.1236 23.2637C53.0947 23.2637 52.2715 24.0872 52.2715 25.1166C52.3229 26.146 53.1461 26.9695 54.1236 26.9695Z" fill="#FF7A82"/>
<path d="M61.0182 26.9695C62.0472 26.9695 62.8703 26.146 62.8703 25.1166C62.8703 24.0872 62.0472 23.2637 61.0182 23.2637C59.9892 23.2637 59.166 24.0872 59.166 25.1166C59.166 26.146 59.9892 26.9695 61.0182 26.9695Z" fill="#FDB62F"/>
<path d="M67.8619 26.9695C68.8909 26.9695 69.7141 26.146 69.7141 25.1166C69.7141 24.0872 68.8909 23.2637 67.8619 23.2637C66.8329 23.2637 66.0098 24.0872 66.0098 25.1166C66.0098 26.146 66.8329 26.9695 67.8619 26.9695Z" fill="#64A7B0"/>
<path d="M299.331 39.6826C299.434 39.6826 299.485 39.6826 299.588 39.6826C299.691 39.6826 299.743 39.7341 299.794 39.7855C299.845 39.837 299.897 39.8884 299.948 39.9914C300 40.0943 300 40.1458 300 40.2487C300 40.3516 300 40.4031 299.948 40.506C299.588 41.7413 299.074 42.8736 298.456 44.0059C298.353 44.1603 298.25 44.2633 298.096 44.3148C297.942 44.3663 297.787 44.3662 297.633 44.2633C297.478 44.1603 297.376 44.0574 297.324 43.903C297.273 43.7486 297.324 43.5943 297.375 43.4399C297.942 42.4105 298.405 41.3296 298.713 40.1973C298.765 40.0944 298.816 39.9914 298.919 39.8884C299.074 39.734 299.228 39.6826 299.331 39.6826Z" fill="#110580"/>
<path d="M197.257 13.9482C197.308 13.9482 197.411 13.9482 197.462 13.9482L198.337 14.1541C200.395 14.6688 202.504 15.1834 204.768 15.801C204.871 15.801 204.923 15.8526 204.974 15.9041C205.025 15.9555 205.077 16.007 205.128 16.1099C205.18 16.1614 205.18 16.2643 205.18 16.3672C205.18 16.4702 205.18 16.5217 205.128 16.6246C205.128 16.7275 205.077 16.7789 205.025 16.8304C204.974 16.8819 204.923 16.9334 204.82 16.9848C204.717 17.0363 204.665 17.0364 204.562 17.0364C204.46 17.0364 204.408 17.0363 204.305 16.9848C202.093 16.3672 199.983 15.8526 197.925 15.3379L197.051 15.132C196.897 15.0806 196.742 14.9776 196.691 14.8747C196.588 14.7203 196.588 14.5658 196.639 14.4114C196.691 14.257 196.742 14.1541 196.845 14.0512C196.999 13.9997 197.102 13.9482 197.257 13.9482ZM211.714 18.1171C211.817 18.1171 211.92 18.1171 212.023 18.1171C214.389 18.9921 216.704 20.0215 218.968 21.2568C219.02 21.3082 219.123 21.3597 219.174 21.4112C219.225 21.4627 219.277 21.5656 219.277 21.617C219.277 21.72 219.328 21.7714 219.277 21.8744C219.277 21.9773 219.225 22.0288 219.225 22.1317C219.174 22.1832 219.122 22.2862 219.071 22.3377C219.02 22.3891 218.917 22.4406 218.865 22.4406C218.762 22.4406 218.711 22.492 218.608 22.4406C218.505 22.4406 218.454 22.3891 218.402 22.3891C216.19 21.2053 213.926 20.176 211.611 19.3525C211.457 19.301 211.354 19.198 211.302 19.0951C211.251 18.9922 211.199 18.8377 211.199 18.6833C211.199 18.5289 211.302 18.426 211.354 18.3231C211.457 18.1687 211.56 18.1171 211.714 18.1171ZM224.885 25.3227C224.988 25.3227 225.039 25.3227 225.142 25.3227C225.245 25.3227 225.296 25.3743 225.348 25.4258C227.354 27.0213 229.207 28.8227 230.801 30.7785C230.853 30.8299 230.904 30.9328 230.904 30.9843C230.904 31.0872 230.956 31.1387 230.904 31.2416C230.904 31.3446 230.853 31.3961 230.853 31.499C230.801 31.5505 230.75 31.6535 230.699 31.7049C230.596 31.8079 230.39 31.8594 230.236 31.8594C230.081 31.8594 229.927 31.7564 229.824 31.6534C228.229 29.7491 226.48 27.9992 224.525 26.4552C224.473 26.4037 224.422 26.3521 224.37 26.2492C224.319 26.1977 224.319 26.0948 224.319 25.9919C224.319 25.8889 224.319 25.8375 224.319 25.7345C224.319 25.6316 224.37 25.5802 224.422 25.5287C224.576 25.4258 224.73 25.3742 224.885 25.3227ZM234.351 36.9032C234.454 36.9032 234.609 36.9033 234.712 36.9547C234.814 37.0062 234.917 37.1091 234.969 37.2121C236.152 39.4767 237.078 41.8957 237.747 44.3662C237.799 44.4691 237.799 44.5206 237.799 44.6235C237.799 44.7264 237.747 44.7779 237.747 44.8808C237.696 44.9838 237.644 45.0353 237.593 45.0868C237.541 45.1383 237.438 45.1897 237.335 45.1897C237.233 45.1897 237.181 45.2412 237.078 45.1897C236.975 45.1897 236.924 45.1383 236.821 45.0868C236.77 45.0353 236.667 44.9838 236.615 44.8808C236.564 44.8294 236.512 44.7264 236.512 44.6235C235.895 42.2045 234.969 39.8884 233.837 37.6752C233.786 37.6238 233.786 37.5208 233.786 37.4179C233.786 37.315 233.786 37.2635 233.837 37.1605C233.837 37.0576 233.888 37.0062 233.94 36.9547C233.991 36.9033 234.043 36.8518 234.146 36.8003C234.197 36.9547 234.3 36.9032 234.351 36.9032ZM231.265 45.3441C232.654 45.1897 234.043 45.0867 235.432 45.1382C235.586 45.1382 235.741 45.1897 235.844 45.3441C235.946 45.4471 235.998 45.6014 235.998 45.8073C235.998 45.9102 235.998 45.9617 235.946 46.0647C235.895 46.1161 235.843 46.2191 235.792 46.2706C235.741 46.3221 235.689 46.3734 235.586 46.4249C235.535 46.4764 235.432 46.4764 235.329 46.4764C233.991 46.4764 232.654 46.5278 231.316 46.6823C230.236 46.8367 229.104 47.0426 228.023 47.3C227.869 47.3514 227.714 47.2999 227.56 47.2485C227.406 47.1455 227.303 47.0426 227.303 46.8882C227.251 46.7853 227.251 46.7338 227.251 46.6309C227.251 46.5279 227.303 46.4765 227.354 46.3735C227.406 46.322 227.457 46.219 227.509 46.1676C227.56 46.1161 227.663 46.0647 227.715 46.0647C228.949 45.7044 230.081 45.4471 231.265 45.3441ZM242.789 46.1676C242.841 46.1676 242.943 46.1676 242.995 46.1676C245.464 46.7337 247.883 47.4543 250.301 48.2778C250.455 48.3293 250.558 48.4323 250.609 48.5867C250.661 48.7411 250.661 48.8955 250.609 49.0499C250.558 49.2043 250.455 49.3072 250.301 49.4101C250.146 49.5131 249.992 49.5131 249.838 49.4616C247.471 48.6381 245.104 47.969 242.686 47.4029C242.532 47.3514 242.429 47.3 242.326 47.1455C242.223 47.0426 242.172 46.8882 242.223 46.7338C242.223 46.5794 242.275 46.4249 242.378 46.322C242.532 46.2191 242.635 46.1676 242.789 46.1676ZM221.078 49.1014C221.18 49.1014 221.283 49.1013 221.386 49.1528C221.489 49.2042 221.592 49.2558 221.644 49.3587C221.695 49.4102 221.746 49.5131 221.746 49.5645C221.746 49.6675 221.746 49.719 221.746 49.8219C221.746 49.9248 221.695 49.9762 221.644 50.0277C221.592 50.0792 221.541 50.1821 221.489 50.1821C220.46 50.9542 219.483 51.8292 218.659 52.8071C217.939 53.6821 217.322 54.6085 216.859 55.6379C216.756 55.7923 216.653 55.8952 216.499 55.8952C216.344 55.9467 216.19 55.9466 216.036 55.8437C215.881 55.7922 215.778 55.6894 215.727 55.535C215.675 55.3806 215.675 55.2261 215.727 55.0717C216.241 53.9394 216.91 52.8585 217.682 51.8806C218.557 50.7998 219.586 49.8734 220.717 49.0499C220.872 49.1013 220.975 49.1014 221.078 49.1014ZM238.056 51.5204H238.159C238.262 51.5204 238.313 51.5203 238.416 51.5718C238.467 51.6232 238.57 51.6233 238.622 51.7262C238.673 51.7777 238.725 51.8292 238.776 51.9322C238.828 51.9836 238.828 52.0866 238.828 52.1895C238.828 54.8144 238.416 57.3878 237.593 59.8583C237.541 60.0127 237.438 60.1156 237.284 60.2185C237.13 60.27 236.975 60.3215 236.821 60.2701C236.667 60.2186 236.564 60.1156 236.461 59.9612C236.409 59.8068 236.358 59.6524 236.461 59.498C237.284 57.1819 237.644 54.7114 237.644 52.2409C237.644 52.0865 237.696 51.9321 237.799 51.7777C237.747 51.5719 237.901 51.4689 238.056 51.5204ZM257.143 50.6968C257.246 50.6968 257.298 50.6968 257.401 50.6968C258.224 51.0056 259.098 51.263 259.922 51.4689C261.568 51.9836 263.06 52.4468 264.552 52.8071C264.655 52.8071 264.706 52.8585 264.758 52.91C264.809 52.9615 264.861 53.013 264.912 53.0644C264.964 53.1159 264.964 53.2188 265.015 53.2703C265.015 53.3732 265.015 53.4247 265.015 53.5276C265.015 53.6306 264.964 53.6821 264.912 53.7336C264.861 53.785 264.809 53.8364 264.758 53.8879C264.706 53.9393 264.604 53.9394 264.552 53.9909C264.449 53.9909 264.398 53.9909 264.295 53.9909C262.803 53.6306 261.208 53.2188 259.562 52.6527C258.738 52.3953 257.864 52.138 257.041 51.8806C256.886 51.8292 256.783 51.7262 256.732 51.6233C256.629 51.5204 256.629 51.3659 256.629 51.2115C256.629 51.0571 256.732 50.9542 256.783 50.8513C256.886 50.7483 256.989 50.6968 257.143 50.6968ZM293.055 48.7925C293.158 48.7925 293.261 48.7926 293.364 48.844C293.466 48.8955 293.569 48.9469 293.621 49.0499C293.672 49.1013 293.724 49.2042 293.724 49.2557C293.724 49.3586 293.775 49.4101 293.724 49.513C293.724 49.616 293.672 49.6674 293.672 49.7704C293.621 49.8218 293.569 49.9249 293.518 49.9763C291.511 51.6233 289.248 52.91 286.881 53.8365C286.727 53.8879 286.572 53.8879 286.418 53.8365C286.264 53.785 286.161 53.6306 286.109 53.4762C286.058 53.3218 286.058 53.1673 286.109 53.0129C286.161 52.8585 286.315 52.7557 286.469 52.7042C288.733 51.8292 290.894 50.5939 292.798 49.0499C292.849 48.844 292.952 48.7925 293.055 48.7925ZM271.703 54.2483H271.858C274.327 54.5056 276.797 54.557 279.266 54.2996C279.421 54.2996 279.575 54.3511 279.73 54.4541C279.832 54.557 279.935 54.7114 279.935 54.8658C279.935 55.0203 279.884 55.1746 279.781 55.329C279.678 55.4834 279.524 55.535 279.369 55.535C276.848 55.7923 274.276 55.7408 271.755 55.4834C271.601 55.4834 271.446 55.3806 271.343 55.2776C271.24 55.1747 271.189 54.9687 271.189 54.8143C271.189 54.6599 271.292 54.557 271.343 54.4026C271.498 54.2996 271.601 54.2483 271.703 54.2483ZM215.161 62.1744C215.315 62.1744 215.47 62.1744 215.624 62.2773C215.727 62.3802 215.83 62.5347 215.881 62.6891C216.138 64.6449 217.167 66.3948 218.659 67.6815C218.968 67.9388 219.277 68.1447 219.637 68.3506C219.791 68.4536 219.894 68.5565 219.946 68.7109C219.997 68.8653 219.946 69.0198 219.894 69.1742C219.791 69.3286 219.688 69.4314 219.534 69.4829C219.38 69.5344 219.225 69.483 219.071 69.4315C218.659 69.1742 218.299 68.9168 217.939 68.6595C216.241 67.2184 215.11 65.1595 214.801 62.8949C214.801 62.7405 214.801 62.5861 214.904 62.4317C214.852 62.2773 215.007 62.2258 215.161 62.1744ZM232.911 65.2625C233.014 65.2625 233.117 65.2625 233.168 65.2625C233.22 65.2625 233.322 65.3655 233.425 65.4169C233.477 65.4684 233.528 65.5198 233.58 65.6228C233.631 65.6742 233.631 65.7772 233.631 65.8801C233.631 65.983 233.631 66.0345 233.58 66.1374C233.528 66.1889 233.477 66.2919 233.425 66.3434C231.573 68.1963 229.258 69.5344 226.686 70.2549C226.583 70.2549 226.531 70.2549 226.428 70.2549C226.325 70.2549 226.274 70.2035 226.222 70.152C226.171 70.1006 226.068 70.0491 226.068 69.9976C226.017 69.9461 225.965 69.8432 225.965 69.7918C225.965 69.6888 225.965 69.6374 225.965 69.5344C225.965 69.4315 226.017 69.3799 226.068 69.3285C226.12 69.277 226.171 69.1741 226.222 69.1227C226.274 69.0712 226.377 69.0197 226.428 69.0197C228.744 68.3506 230.904 67.1154 232.602 65.4169C232.654 65.3655 232.808 65.314 232.911 65.2625Z" fill="#110580"/>
<path d="M186.658 10.2422C186.812 10.2422 186.967 10.2422 187.069 10.3451C188.047 11.0142 189.076 11.5289 190.208 11.8892C190.362 11.9406 190.465 12.0435 190.568 12.1979C190.619 12.3523 190.619 12.5068 190.568 12.6612C190.517 12.8156 190.414 12.9185 190.259 13.0214C190.105 13.0729 189.951 13.1244 189.796 13.0214C188.613 12.6097 187.43 12.0435 186.401 11.323C186.298 11.2715 186.246 11.1686 186.195 11.0142C186.143 10.9113 186.143 10.7568 186.195 10.6538C186.246 10.5509 186.298 10.448 186.401 10.3451C186.452 10.3451 186.555 10.2937 186.658 10.2422Z" fill="#110580"/>
<path d="M185.319 116.885C199.056 116.885 210.221 105.665 210.221 91.8202C210.221 77.9752 199.108 66.7549 185.319 66.7549C171.582 66.7549 160.418 77.9752 160.418 91.8202C160.418 105.665 171.582 116.885 185.319 116.885Z" fill="#E8EBFF"/>
<path d="M215.109 102.783C212.176 100.982 208.369 101.908 206.568 104.893C204.767 107.827 205.693 111.687 208.626 113.489L246.698 136.855C249.631 138.657 253.438 137.73 255.239 134.745C257.04 131.811 256.114 127.951 253.181 126.15L215.109 102.783Z" fill="#2876D8"/>
<path d="M186.194 87.1885H160.881L160.778 87.8061C160.573 89.0413 160.47 90.328 160.47 91.6147V92.3353H186.194C186.863 92.3353 187.532 92.078 187.995 91.5633C188.458 91.1001 188.767 90.431 188.767 89.7619C188.767 89.0928 188.509 88.4237 187.995 87.9605C187.532 87.4458 186.863 87.1885 186.194 87.1885Z" fill="#CFCFEB"/>
<path d="M170.142 81.5266C170.142 80.8575 169.885 80.1884 169.37 79.7252C168.907 79.2619 168.238 78.9531 167.57 78.9531H163.865L163.66 79.3134C162.991 80.5486 162.425 81.7838 161.962 83.122L161.602 84.1H167.57C168.238 84.1 168.907 83.8427 169.37 83.328C169.885 82.8647 170.142 82.1957 170.142 81.5266Z" fill="#CFCFEB"/>
<path d="M179.454 73.2922C179.454 72.6231 179.196 71.954 178.682 71.4908C178.219 71.0276 177.55 70.7188 176.881 70.7188H171.273L171.067 70.8731C169.575 71.9539 168.186 73.2406 166.9 74.6303L165.871 75.8141H176.881C177.241 75.8141 177.55 75.7627 177.859 75.6083C178.167 75.5053 178.476 75.2994 178.682 75.0421C178.939 74.7847 179.094 74.5273 179.248 74.2185C179.351 73.9612 179.454 73.6525 179.454 73.2922Z" fill="#CFCFEB"/>
<path d="M176.882 103.504H163.094L163.711 104.585C164.431 105.923 165.306 107.21 166.232 108.393L166.438 108.651H176.882C177.551 108.651 178.22 108.393 178.683 107.879C179.146 107.416 179.455 106.746 179.455 106.077C179.455 105.408 179.197 104.739 178.683 104.276C178.22 103.761 177.551 103.504 176.882 103.504Z" fill="#CFCFEB"/>
<path d="M159.132 75.7616C155.993 80.96 154.399 87.0334 154.656 93.1067C154.913 99.2314 156.971 105.099 160.521 110.04C164.122 114.981 169.062 118.738 174.721 120.848C180.432 122.958 186.606 123.319 192.522 121.878C198.439 120.436 203.738 117.297 207.854 112.768C211.97 108.29 214.645 102.68 215.623 96.6064C216.549 90.5846 215.674 84.4084 213.153 78.8497C210.581 73.2911 206.465 68.6589 201.32 65.4679C197.873 63.3577 194.066 61.9681 190.104 61.299C186.143 60.6814 182.078 60.8358 178.168 61.8137C174.258 62.7916 170.554 64.4901 167.312 66.8576C163.968 69.2767 161.241 72.2617 159.132 75.7616ZM206.568 104.841C203.995 109.062 200.24 112.459 195.815 114.518C191.339 116.576 186.348 117.297 181.512 116.525C176.676 115.753 172.149 113.54 168.496 110.194C164.894 106.849 162.322 102.474 161.19 97.6873C160.007 92.8493 160.315 87.8054 162.013 83.1732C163.711 78.541 166.746 74.4749 170.708 71.5412C174.67 68.6075 179.403 66.9605 184.342 66.7546C189.281 66.5487 194.117 67.8355 198.336 70.4089C203.944 73.8573 208.008 79.416 209.552 85.901C211.044 92.3861 209.964 99.1799 206.568 104.841Z" fill="#2876D8"/>
<path d="M195.404 77.1006C197.925 79.4167 198.696 82.4019 198.131 84.5635C197.513 86.9311 201.269 86.4164 201.886 84.2547C202.401 82.4533 202.349 80.6005 201.783 78.7991C201.166 77.0491 200.034 75.5565 198.491 74.4756C196.741 73.2919 194.735 72.5199 192.625 72.2111C190.516 71.9022 188.407 72.0566 186.349 72.6742C186.143 72.7257 185.937 72.7772 185.783 72.9316C185.628 73.0345 185.474 73.2405 185.371 73.3949C185.268 73.6007 185.217 73.8066 185.217 74.0125C185.217 74.2183 185.268 74.4242 185.371 74.6301C186.297 75.7109 187.429 75.3507 190.259 75.3507C192.162 75.3507 193.963 75.9683 195.404 77.1006Z" fill="white"/>
</g>
</svg>
