<svg width="128" height="36" viewBox="0 0 128 36" fill="none" xmlns="http://www.w3.org/2000/svg">
<g clip-path="url(#clip0_8718_411)">
<path d="M4.10923 1.2959H0L0.143022 11.5267L6.76742 9.16389L6.74554 3.95644C6.74495 3.25108 6.46707 2.57478 5.97279 2.07597C5.47851 1.57716 4.8083 1.29661 4.10923 1.2959Z" fill="#2D333F"/>
<path d="M14.1838 0H20.1726V13.7356C20.1725 14.8173 19.84 15.8723 19.221 16.7555C18.6019 17.6386 17.7268 18.3064 16.716 18.6668L8.5664 21.5745C7.81185 21.8431 7.15849 22.3412 6.69633 23.0002C6.23423 23.6591 5.98608 24.4466 5.98613 25.2538V35.6548H0V23.0591C5.63033e-05 21.6441 0.434875 20.264 1.24458 19.1087C2.05428 17.9534 3.19904 17.0799 4.52122 16.6083L12.5449 13.7469C13.0242 13.5759 13.4391 13.2592 13.7326 12.8404C14.0261 12.4216 14.1837 11.9213 14.1838 11.4084V0Z" fill="#54A0FF"/>
<path d="M16.6024 35.6552H23.5342L17.2865 25.0352L13.7681 26.4492C13.5043 26.5551 13.2668 26.7183 13.0726 26.9272C12.8783 27.1361 12.732 27.3857 12.644 27.658C12.5561 27.9304 12.5286 28.219 12.5635 28.5033C12.5986 28.7875 12.6952 29.0606 12.8464 29.303L16.6024 35.6552Z" fill="#2D333F"/>
<path d="M40.7965 30.9919C40.7965 31.7661 41.2067 32.1532 42.0272 32.1532C42.3651 32.1532 42.6788 32.1048 42.9684 32.0081V35.3105C42.0513 35.6491 41.1222 35.8185 40.181 35.8185C38.347 35.8185 37.0679 35.1653 36.3439 33.8588C34.534 35.2862 32.4465 36 30.0815 36C28.3681 36 26.9201 35.5282 25.7376 34.5846C24.5792 33.6169 24 32.3105 24 30.6653C24 29.2863 24.4103 28.1371 25.2308 27.2177C26.0513 26.2983 27.0046 25.6814 28.0905 25.3669C29.1765 25.0282 30.359 24.8589 31.6381 24.8589C33.0619 24.8589 34.4375 25.0161 35.7647 25.3306V24.7137C35.7647 23.8185 35.4148 23.1048 34.715 22.5726C34.0151 22.0403 33.0016 21.7742 31.6742 21.7742C29.7436 21.7742 27.6924 22.2096 25.5204 23.0806V18.7258C27.8371 17.9516 30.0815 17.5645 32.2534 17.5645C37.9488 17.5645 40.7965 20.1895 40.7965 25.4395V30.9919ZM32.7965 27.8709C31.7587 27.8709 30.8899 28.0645 30.1901 28.4516C29.4902 28.8387 29.1403 29.4435 29.1403 30.2661C29.1403 30.8951 29.3937 31.4153 29.9005 31.8266C30.4314 32.2137 31.083 32.4072 31.8553 32.4072C33.3756 32.4072 34.6788 31.9354 35.7647 30.9919V28.2702C34.6547 28.004 33.6652 27.8709 32.7965 27.8709ZM45.4186 9H50.4503V35.4919H45.4186V9ZM59.8528 35.4919H54.8211V18.0726H59.8528V35.4919ZM60.2872 12.3024C60.2872 13.2459 60.0097 13.9596 59.4546 14.4435C58.8995 14.9274 58.1876 15.1693 57.3188 15.1693C56.4742 15.1693 55.7743 14.9274 55.2193 14.4435C54.6642 13.9596 54.3867 13.2459 54.3867 12.3024C54.3867 11.383 54.6642 10.6814 55.2193 10.1976C55.7743 9.71371 56.4742 9.47172 57.3188 9.47172C58.1635 9.47172 58.8634 9.71371 59.4184 10.1976C59.9976 10.6814 60.2872 11.383 60.2872 12.3024ZM69.2202 35.4919H64.1885V18.0726H68.6404V20.1048C69.1959 19.4516 69.9561 18.871 70.9211 18.3629C71.8868 17.8306 72.9727 17.5645 74.179 17.5645C76.5685 17.5645 78.3423 18.4234 79.5006 20.1411C81.2623 18.4234 83.1929 17.5645 85.2925 17.5645C87.5124 17.5645 89.1417 18.2661 90.179 19.6694C91.2413 21.0483 91.7717 22.6451 91.7717 24.4596V35.4919H86.7765V24.7862C86.7765 23.8911 86.5231 23.1895 86.0163 22.6814C85.5338 22.1733 84.8824 21.9193 84.0613 21.9193C82.7828 21.9193 81.636 22.5 80.6223 23.6612C80.6467 23.8306 80.6588 24.0967 80.6588 24.4596V35.4919H75.6636V24.7862C75.6636 23.8911 75.4102 23.1895 74.9034 22.6814C74.4202 22.1733 73.7688 21.9193 72.9484 21.9193C71.5246 21.9193 70.2818 22.6209 69.2202 24.0242V35.4919ZM111.392 30.9919C111.392 31.7661 111.802 32.1532 112.623 32.1532C112.961 32.1532 113.274 32.1048 113.564 32.0081V35.3105C112.647 35.6491 111.718 35.8185 110.777 35.8185C108.942 35.8185 107.664 35.1653 106.939 33.8588C105.13 35.2862 103.042 36 100.677 36C98.9639 36 97.5157 35.5282 96.3331 34.5846C95.1749 33.6169 94.5957 32.3105 94.5957 30.6653C94.5957 29.2863 95.0059 28.1371 95.8263 27.2177C96.6467 26.2983 97.6002 25.6814 98.6861 25.3669C99.7721 25.0282 100.955 24.8589 102.234 24.8589C103.658 24.8589 105.033 25.0161 106.36 25.3306V24.7137C106.36 23.8185 106.01 23.1048 105.311 22.5726C104.611 22.0403 103.597 21.7742 102.27 21.7742C100.339 21.7742 98.2881 22.2096 96.1162 23.0806V18.7258C98.4327 17.9516 100.677 17.5645 102.849 17.5645C108.544 17.5645 111.392 20.1895 111.392 25.4395V30.9919ZM103.392 27.8709C102.354 27.8709 101.485 28.0645 100.786 28.4516C100.086 28.8387 99.7356 29.4435 99.7356 30.2661C99.7356 30.8951 99.989 31.4153 100.496 31.8266C101.027 32.2137 101.678 32.4072 102.451 32.4072C103.971 32.4072 105.274 31.9354 106.36 30.9919V28.2702C105.25 28.004 104.26 27.8709 103.392 27.8709ZM117.068 12.9919L122.063 11.7943V18.0726H127.566V22.3185H122.063V29.1411C122.063 30.8831 122.993 31.754 124.851 31.754C125.961 31.754 127.011 31.5605 128 31.1734V35.2379C126.553 35.746 124.996 36 123.33 36C121.496 36 119.988 35.5282 118.806 34.5846C117.647 33.6411 117.068 32.1532 117.068 30.1209V22.3185H114.136V18.0726H117.068V12.9919Z" fill="#2D333F"/>
</g>
<defs>
<clipPath id="clip0_8718_411">
<rect width="128" height="36" fill="white"/>
</clipPath>
</defs>
</svg>
