<svg width="28" height="28" viewBox="0 0 28 28" fill="none" xmlns="http://www.w3.org/2000/svg">
<path fill-rule="evenodd" clip-rule="evenodd" d="M4.19922 6.99961C4.19922 6.62831 4.34672 6.27221 4.60927 6.00966C4.87182 5.74711 5.22792 5.59961 5.59922 5.59961H22.3992C22.7705 5.59961 23.1266 5.74711 23.3892 6.00966C23.6517 6.27221 23.7992 6.62831 23.7992 6.99961C23.7992 7.37091 23.6517 7.72701 23.3892 7.98956C23.1266 8.25211 22.7705 8.39961 22.3992 8.39961H5.59922C5.22792 8.39961 4.87182 8.25211 4.60927 7.98956C4.34672 7.72701 4.19922 7.37091 4.19922 6.99961Z" fill="black"/>
<path fill-rule="evenodd" clip-rule="evenodd" d="M4.19922 13.9996C4.19922 13.6283 4.34672 13.2722 4.60927 13.0097C4.87182 12.7471 5.22792 12.5996 5.59922 12.5996H22.3992C22.7705 12.5996 23.1266 12.7471 23.3892 13.0097C23.6517 13.2722 23.7992 13.6283 23.7992 13.9996C23.7992 14.3709 23.6517 14.727 23.3892 14.9896C23.1266 15.2521 22.7705 15.3996 22.3992 15.3996H5.59922C5.22792 15.3996 4.87182 15.2521 4.60927 14.9896C4.34672 14.727 4.19922 14.3709 4.19922 13.9996Z" fill="black"/>
<path fill-rule="evenodd" clip-rule="evenodd" d="M12.5996 20.9996C12.5996 20.6283 12.7471 20.2722 13.0097 20.0097C13.2722 19.7471 13.6283 19.5996 13.9996 19.5996H22.3996C22.7709 19.5996 23.127 19.7471 23.3896 20.0097C23.6521 20.2722 23.7996 20.6283 23.7996 20.9996C23.7996 21.3709 23.6521 21.727 23.3896 21.9896C23.127 22.2521 22.7709 22.3996 22.3996 22.3996H13.9996C13.6283 22.3996 13.2722 22.2521 13.0097 21.9896C12.7471 21.727 12.5996 21.3709 12.5996 20.9996Z" fill="black"/>
</svg>
