<svg width="415" height="317" viewBox="0 0 415 317" fill="none" xmlns="http://www.w3.org/2000/svg">
<path d="M102.4 0.579102H408.518C417.683 0.579102 424.971 7.82354 424.971 16.6154V196.11C424.971 205.042 417.538 212.146 408.518 212.146H102.4C93.2352 212.146 85.9468 204.902 85.9468 196.11V16.6154C85.9468 7.7532 93.3795 0.579102 102.4 0.579102Z" fill="#54A0FF"/>
<path d="M103.627 9.79297H407.363C411.044 9.79297 414.147 12.6767 414.147 16.4045V172.548C414.147 176.135 411.188 179.019 407.363 179.019H103.627C99.9466 179.019 96.9878 176.135 96.9878 172.548V16.4045C96.8434 12.8174 99.9466 9.79297 103.627 9.79297Z" fill="#E8EAF7"/>
<path d="M313.118 255.754H197.728L212.089 212.217H298.829L313.118 255.754Z" fill="#54A0FF"/>
<path d="M171.172 244.712H339.818C342.272 244.712 344.292 246.681 344.292 249.073V251.464C344.292 253.855 342.272 255.825 339.818 255.825H171.172C168.718 255.825 166.698 253.855 166.698 251.464V249.073C166.77 246.611 168.718 244.712 171.172 244.712Z" fill="#54A0FF"/>
<path d="M253.944 204.48C258.926 204.48 262.964 200.544 262.964 195.688C262.964 190.833 258.926 186.896 253.944 186.896C248.962 186.896 244.923 190.833 244.923 195.688C244.923 200.544 248.962 204.48 253.944 204.48Z" fill="#3B82DA"/>
<path d="M141.296 30.3311H366.519V162.279C366.519 164.6 364.643 166.359 362.334 166.359H145.554C143.173 166.359 141.369 164.53 141.369 162.279C141.296 162.35 141.296 30.3311 141.296 30.3311Z" fill="white"/>
<path d="M301.86 39.8262H354.251C355.694 39.8262 356.849 40.8813 356.849 42.3583V154.542C356.849 155.949 355.767 157.074 354.251 157.074H301.86C300.417 157.074 299.263 156.019 299.263 154.542V42.3583C299.335 40.8813 300.417 39.8262 301.86 39.8262Z" fill="#E8E8F7"/>
<path d="M153.564 39.8262H287.067C288.51 39.8262 289.665 40.8813 289.665 42.3583V154.542C289.665 155.949 288.582 157.074 287.067 157.074H153.564C152.121 157.074 150.967 156.019 150.967 154.542V42.3583C150.967 40.8813 152.193 39.8262 153.564 39.8262Z" fill="#EBDBCD"/>
<path d="M309.582 59.4492H327.767C328.778 59.4492 329.643 60.2932 329.643 61.2779C329.643 62.2626 328.778 63.1067 327.767 63.1067H309.582C308.572 63.1067 307.706 62.2626 307.706 61.2779C307.706 60.2932 308.427 59.4492 309.582 59.4492Z" fill="#C5C6E3"/>
<path d="M309.582 67.0449H346.746C347.756 67.0449 348.622 67.8889 348.622 68.8736C348.622 69.8583 347.756 70.7023 346.746 70.7023H309.582C308.572 70.7023 307.706 69.8583 307.706 68.8736C307.706 67.7483 308.427 67.0449 309.582 67.0449Z" fill="#C5C6E3"/>
<path d="M309.582 100.244H346.746C347.756 100.244 348.622 101.088 348.622 102.073C348.622 103.058 347.756 103.902 346.746 103.902H309.582C308.572 103.902 307.706 103.058 307.706 102.073C307.706 100.947 308.427 100.244 309.582 100.244Z" fill="#C5C6E3"/>
<path d="M309.582 92.6475H337.293C338.303 92.6475 339.169 93.4915 339.169 94.4761C339.169 95.4608 338.303 96.3048 337.293 96.3048H309.582C308.572 96.3048 307.706 95.4608 307.706 94.4761C307.706 93.4915 308.427 92.6475 309.582 92.6475Z" fill="#C5C6E3"/>
<path d="M309.582 135.06H346.746C347.756 135.06 348.622 135.904 348.622 136.888C348.622 137.873 347.756 138.717 346.746 138.717H309.582C308.572 138.717 307.706 137.873 307.706 136.888C307.706 135.904 308.427 135.06 309.582 135.06Z" fill="#C5C6E3"/>
<path d="M309.582 127.463H327.767C328.778 127.463 329.643 128.307 329.643 129.292C329.643 130.276 328.778 131.12 327.767 131.12H309.582C308.572 131.12 307.706 130.276 307.706 129.292C307.706 128.307 308.427 127.463 309.582 127.463Z" fill="#C5C6E3"/>
<path d="M309.582 142.515H346.746C347.756 142.515 348.622 143.359 348.622 144.343C348.622 145.328 347.756 146.172 346.746 146.172H309.582C308.572 146.172 307.706 145.328 307.706 144.343C307.706 143.359 308.427 142.515 309.582 142.515Z" fill="#C5C6E3"/>
<path d="M312.757 124.438C315.268 124.438 317.304 122.454 317.304 120.007C317.304 117.56 315.268 115.576 312.757 115.576C310.246 115.576 308.211 117.56 308.211 120.007C308.211 122.454 310.246 124.438 312.757 124.438Z" fill="#4E53BA"/>
<path d="M312.757 56.4248C315.268 56.4248 317.304 54.4409 317.304 51.9936C317.304 49.5464 315.268 47.5625 312.757 47.5625C310.246 47.5625 308.211 49.5464 308.211 51.9936C308.211 54.4409 310.246 56.4248 312.757 56.4248Z" fill="#4E53BA"/>
<path d="M312.757 89.4824C315.268 89.4824 317.304 87.4985 317.304 85.0512C317.304 82.604 315.268 80.6201 312.757 80.6201C310.246 80.6201 308.211 82.604 308.211 85.0512C308.211 87.4985 310.246 89.4824 312.757 89.4824Z" fill="#FF7A82"/>
<path d="M144.905 20.9062H363.055C365.076 20.9062 366.663 22.4536 366.663 24.423V30.331H141.369V24.423C141.296 22.4536 142.884 20.9062 144.905 20.9062Z" fill="#868AE0"/>
<path d="M88.6771 128.924L70.8989 130.188L78.7326 234.924L96.5108 233.661L88.6771 128.924Z" fill="#DADAED"/>
<path d="M77.9185 143.837L71.8726 144.267L71.9618 145.46L78.0077 145.03L77.9185 143.837Z" fill="#989BD7"/>
<path d="M78.3269 156.074L72.2798 156.486L72.3655 157.68L78.4126 157.267L78.3269 156.074Z" fill="#989BD7"/>
<path d="M79.1223 167.894L73.0752 168.307L73.1609 169.5L79.208 169.087L79.1223 167.894Z" fill="#989BD7"/>
<path d="M80.5171 179.006L74.4712 179.436L74.5604 180.628L80.6063 180.199L80.5171 179.006Z" fill="#989BD7"/>
<path d="M81.3828 190.682L75.3369 191.111L75.4261 192.304L81.4721 191.875L81.3828 190.682Z" fill="#989BD7"/>
<path d="M82.2447 202.429L76.1987 202.858L76.288 204.051L82.3339 203.622L82.2447 202.429Z" fill="#989BD7"/>
<path d="M83.2548 214.103L77.2085 214.532L77.2977 215.725L83.344 215.296L83.2548 214.103Z" fill="#989BD7"/>
<path d="M70.3077 164.738L59.0059 166.666L73.8729 249.455L85.1747 247.527L70.3077 164.738Z" fill="#FFADB2"/>
<path d="M70.4318 164.882L59.0298 166.781L60.762 150.955L63.2155 150.604L70.4318 164.882Z" fill="#EBDBCD"/>
<path d="M61.4837 158.27L63.1433 157.215L64.4422 157.285L66.1021 156.441L63.2156 150.604L60.7621 150.955L60.1846 157.285L61.4837 158.27Z" fill="#FF7A82"/>
<path d="M62.4936 194.422H111.926C113.152 194.422 114.018 195.407 114.018 196.462C114.018 196.602 114.018 196.602 114.018 196.743L107.451 248.158C107.163 250.549 105.07 252.378 102.617 252.378H71.514C69.0605 252.378 66.9676 250.549 66.6789 248.158L60.2565 196.743C60.1121 195.688 60.9782 194.563 62.1328 194.422C62.2771 194.492 62.3493 194.492 62.4936 194.422Z" fill="#FF7A82"/>
<path d="M5.91748 254.207H117.987C124.626 254.207 129.967 259.412 129.967 265.883V266.586C129.967 273.057 124.626 278.262 117.987 278.262H5.91748V254.207Z" fill="#F8E7D8"/>
<path d="M197.367 252.448H0.866104C0.360959 252.448 0 252.8 0 253.292C0 253.785 0.360959 254.136 0.866104 254.136H117.482C124.266 254.136 129.822 259.552 129.822 266.164C129.822 272.775 124.266 278.191 117.482 278.191H0.866104C0.360959 278.191 0 278.542 0 279.035C0 279.527 0.360959 279.879 0.866104 279.879H197.367C204.151 279.879 209.707 274.463 209.707 267.852V264.335C209.78 257.864 204.223 252.448 197.367 252.448Z" fill="#3B82DA"/>
<path d="M95.6167 272.987H5.91748V271.932H95.6167C95.9775 271.932 96.2661 272.213 96.2661 272.565C96.1939 272.635 95.9775 272.987 95.6167 272.987Z" fill="#DEBCA7"/>
<path d="M105.359 261.1H5.91748V260.045H105.359C105.72 260.045 106.008 260.326 106.008 260.678C106.008 260.819 105.72 261.1 105.359 261.1Z" fill="#DEBCA7"/>
<path d="M116.328 266.726H5.91748V265.671H116.328C116.689 265.671 116.977 265.952 116.977 266.304C116.977 266.515 116.761 266.726 116.328 266.726Z" fill="#DEBCA7"/>
<path d="M412.597 316.972H389.649C373.917 316.972 361.144 305.015 360.206 289.893L356.526 223.919C356.382 221.528 358.258 219.488 360.639 219.348C360.783 219.348 360.928 219.348 360.928 219.348H441.101C443.555 219.348 445.576 221.317 445.576 223.708C445.576 223.849 445.576 223.849 445.576 223.99L441.895 289.964C441.174 305.086 428.184 316.972 412.597 316.972Z" fill="#FF5856"/>
<path d="M407.041 203.945C407.041 203.945 387.412 186.22 387.989 173.208C389 153.374 407.257 145.778 400.329 126.998C397.01 118.066 383.299 89.2988 383.299 89.2988C383.299 89.2988 406.03 111.243 414.04 124.677C421.329 136.986 420.463 156.328 412.597 165.612C395.35 186.009 407.041 203.945 407.041 203.945Z" fill="#DCDCED"/>
</svg>
