<svg width="24" height="24" viewBox="0 0 24 24" fill="none" xmlns="http://www.w3.org/2000/svg">
<path fill-rule="evenodd" clip-rule="evenodd" d="M10.0233 0.0135198C8.29216 0.211338 7.2254 0.506298 5.97844 1.13196C4.93904 1.65348 4.16735 2.19861 3.32185 3.00863C-0.0845835 6.27215 -0.973503 11.3647 1.13199 15.5542C3.43307 20.133 8.54252 22.4654 13.4835 21.1926C14.8416 20.8428 16.0143 20.2661 17.4157 19.2588C17.4745 19.2165 18.0378 19.746 19.8105 21.5102C22.3681 24.0555 22.3625 24.0511 22.9521 23.9814C23.6938 23.8936 24.1534 23.1871 23.9529 22.4427C23.8869 22.1975 23.6945 21.989 21.5451 19.8324C19.7659 18.0475 19.2221 17.4706 19.2644 17.4126C20.3605 15.906 21.0021 14.507 21.345 12.8756C21.5249 12.0196 21.5928 10.4101 21.4858 9.54163C21.2976 8.01598 20.7868 6.50101 20.0503 5.28447C18.9174 3.41319 17.3833 2.01151 15.4439 1.07562C14.3843 0.564268 13.5084 0.289399 12.3949 0.118854C11.8505 0.0354621 10.3965 -0.0291304 10.0233 0.0135198ZM12.4537 2.55642C14.6575 3.02389 16.4877 4.25009 17.7226 6.08629C19.6316 8.92494 19.6366 12.5681 17.7354 15.4388C17.2308 16.2007 16.2029 17.2275 15.4398 17.732C13.8448 18.7863 11.9892 19.269 10.1186 19.1163C7.16546 18.8753 4.61627 17.1692 3.30224 14.5545C1.35572 10.6811 2.63947 6.0112 6.2934 3.67369C7.21243 3.08574 8.52179 2.61473 9.69101 2.45154C10.3014 2.36629 11.8313 2.42438 12.4537 2.55642Z" fill="white"/>
</svg>
