<svg width="80" height="80" viewBox="0 0 80 80" fill="none" xmlns="http://www.w3.org/2000/svg">
<circle cx="40" cy="40" r="40" fill="#FFA51D"/>
<g clip-path="url(#clip0_4799_9326)">
<path d="M60 40C60 28.954 51.046 20 40 20C28.954 20 20 28.954 20 40C20 43.286 20.794 46.46 22.29 49.3L20.058 57.88C19.9838 58.1666 19.9856 58.4675 20.0634 58.7531C20.1412 59.0387 20.2923 59.2991 20.5016 59.5084C20.7109 59.7177 20.9713 59.8688 21.2569 59.9466C21.5425 60.0244 21.8434 60.0262 22.13 59.952L30.71 57.718C33.5753 59.222 36.7639 60.0052 40 60C51.046 60 60 51.046 60 40ZM40 32C41.0609 32 42.0783 32.4214 42.8284 33.1716C43.5786 33.9217 44 34.9391 44 36V44C44 45.0609 43.5786 46.0783 42.8284 46.8284C42.0783 47.5786 41.0609 48 40 48H34C32.9391 48 31.9217 47.5786 31.1716 46.8284C30.4214 46.0783 30 45.0609 30 44V36C30 34.9391 30.4214 33.9217 31.1716 33.1716C31.9217 32.4214 32.9391 32 34 32H40ZM46 42.324V37.676L49.468 34.392C49.6809 34.1901 49.9484 34.0552 50.2372 34.0038C50.5261 33.9524 50.8236 33.9868 51.0931 34.1028C51.3626 34.2188 51.5921 34.4113 51.7533 34.6564C51.9145 34.9016 52.0003 35.1886 52 35.482V44.518C52.0003 44.8114 51.9145 45.0984 51.7533 45.3436C51.5921 45.5887 51.3626 45.7812 51.0931 45.8972C50.8236 46.0132 50.5261 46.0476 50.2372 45.9962C49.9484 45.9448 49.6809 45.8099 49.468 45.608L46 42.324Z" fill="white"/>
</g>
<defs>
<clipPath id="clip0_4799_9326">
<rect width="40" height="40" fill="white" transform="translate(20 20)"/>
</clipPath>
</defs>
</svg>
