<svg width="80" height="80" viewBox="0 0 80 80" fill="none" xmlns="http://www.w3.org/2000/svg">
<circle cx="40" cy="40" r="40" fill="#B71540"/>
<path d="M35.4165 46.5711V33.4298C35.4168 33.2654 35.4613 33.104 35.5453 32.9627C35.6294 32.8214 35.7499 32.7053 35.8942 32.6266C36.0386 32.5478 36.2014 32.5094 36.3657 32.5152C36.5301 32.5211 36.6898 32.571 36.8282 32.6598L47.0508 39.2286C47.1803 39.3116 47.2868 39.4257 47.3606 39.5606C47.4343 39.6955 47.473 39.8467 47.473 40.0005C47.473 40.1542 47.4343 40.3054 47.3606 40.4403C47.2868 40.5752 47.1803 40.6894 47.0508 40.7723L36.8282 47.343C36.6898 47.4317 36.5301 47.4817 36.3657 47.4875C36.2014 47.4934 36.0386 47.4549 35.8942 47.3762C35.7499 47.2974 35.6294 47.1813 35.5453 47.04C35.4613 46.8987 35.4168 46.7374 35.4165 46.573V46.5711Z" fill="white"/>
<path fill-rule="evenodd" clip-rule="evenodd" d="M40.0002 22.583C35.381 22.583 30.951 24.418 27.6847 27.6842C24.4185 30.9505 22.5835 35.3805 22.5835 39.9997C22.5835 44.6189 24.4185 49.0489 27.6847 52.3151C30.951 55.5814 35.381 57.4163 40.0002 57.4163C44.6193 57.4163 49.0493 55.5814 52.3156 52.3151C55.5819 49.0489 57.4168 44.6189 57.4168 39.9997C57.4168 35.3805 55.5819 30.9505 52.3156 27.6842C49.0493 24.418 44.6193 22.583 40.0002 22.583ZM19.8335 39.9997C19.8335 28.8622 28.8627 19.833 40.0002 19.833C51.1377 19.833 60.1668 28.8622 60.1668 39.9997C60.1668 51.1372 51.1377 60.1663 40.0002 60.1663C28.8627 60.1663 19.8335 51.1372 19.8335 39.9997Z" fill="white"/>
</svg>
