<svg width="80" height="80" viewBox="0 0 80 80" fill="none" xmlns="http://www.w3.org/2000/svg">
<circle cx="40" cy="40" r="40" fill="#9455E4"/>
<path fill-rule="evenodd" clip-rule="evenodd" d="M25.7132 24.042C25.0631 24.2084 24.4814 24.6854 24.1768 25.3021L24 25.6599V40.007V54.3542L24.1611 54.6784C24.4145 55.1883 24.7026 55.4895 25.1904 55.7546L25.6419 56H27.3908H29.1397L29.5895 55.7555C30.0892 55.4839 30.3043 55.2611 30.5892 54.7196L30.7816 54.3542V40.007V25.6599L30.5368 25.2073C30.2719 24.7176 29.9703 24.4281 29.4632 24.1769C29.1604 24.027 29.0368 24.0157 27.5336 24.0019C26.6502 23.9938 25.831 24.0119 25.7132 24.042ZM34.8506 24.042C34.2004 24.2084 33.6187 24.6854 33.3141 25.3021L33.1373 25.6599V40.007V54.3542L33.2984 54.6784C33.5519 55.1883 33.84 55.4895 34.3277 55.7546L34.7792 56H36.5281H38.2771L38.7269 55.7555C39.2265 55.4839 39.4417 55.2611 39.7266 54.7196L39.9189 54.3542V40.007V25.6599L39.6742 25.2073C39.4092 24.7176 39.1076 24.4281 38.6005 24.1769C38.2978 24.027 38.1741 24.0157 36.6709 24.0019C35.7875 23.9938 34.9684 24.0119 34.8506 24.042ZM46.1162 24.2282C45.1556 24.4393 43.5438 24.9259 43.266 25.0887C42.6487 25.4506 42.2461 26.1153 42.1858 26.872C42.1539 27.2722 42.4254 28.3323 45.6962 40.5795C47.646 47.8801 49.3058 54.0521 49.3847 54.295C49.575 54.8804 49.9687 55.3223 50.5606 55.6143C51.2388 55.9491 51.6461 55.9274 53.2985 55.4691C54.022 55.2685 54.7484 55.0253 54.9127 54.9287C55.5358 54.5628 55.9379 53.9007 55.9978 53.1421C56.0295 52.7421 55.7516 51.6586 52.4202 39.1937C50.4335 31.7606 48.7365 25.5353 48.649 25.3596C48.351 24.7614 47.5971 24.2545 46.879 24.1693C46.7023 24.1483 46.359 24.1749 46.1162 24.2282Z" fill="white"/>
</svg>
