<svg width="80" height="80" viewBox="0 0 80 80" fill="none" xmlns="http://www.w3.org/2000/svg">
<circle cx="40" cy="40" r="40" fill="#E55039"/>
<g clip-path="url(#clip0_4799_9325)">
<path fill-rule="evenodd" clip-rule="evenodd" d="M39.6914 44.0796L40.0586 44.042V44.0803C40.5377 44.0987 41.0233 44.1862 41.4686 44.359C41.4726 44.3605 41.4765 44.362 41.4804 44.3636L42.2835 44.6869L39.6996 45.6829L37.3442 44.775L38.0775 44.4373C38.115 44.42 38.1528 44.4034 38.1909 44.3875C38.6589 44.1924 39.1751 44.095 39.6809 44.08C39.6843 44.0798 39.6879 44.0797 39.6914 44.0796L39.6914 44.0796ZM57.6227 50.6138C57.621 50.6402 57.6225 50.6714 57.6218 50.6957L57.5711 52.5715L44.1023 47.3799L51.1507 44.5761L51.3075 44.7826C51.8261 45.4657 52.4155 46.1088 53.0727 46.6609C54.0466 47.479 55.21 48.0465 56.4483 48.3324C56.7407 48.3999 57.0415 48.612 57.2325 48.837C57.6494 49.328 57.7158 49.9795 57.6252 50.5961L57.6226 50.6137L57.6227 50.6138ZM36.2245 47.7489L38.7841 48.7671L23.4369 54.8721L23.3837 54.8758C22.9365 54.9062 22.4894 54.8159 22.1627 54.4899C21.9349 54.2626 21.8106 53.963 21.7613 53.6488L21.7188 53.3779L21.9742 53.2782C26.6789 51.4412 31.3873 49.6135 36.0999 47.7969L36.2245 47.7489H36.2245ZM21.7766 50.6138L21.774 50.5961C21.6834 49.9795 21.7498 49.328 22.1667 48.837C22.3577 48.612 22.6585 48.3999 22.951 48.3324C24.1892 48.0465 25.3526 47.479 26.3265 46.6609C26.9837 46.1088 27.5731 45.4657 28.0917 44.7826L28.2485 44.5761L35.2969 47.3799L34.4848 47.6933C30.414 49.2644 26.3459 50.8426 22.2809 52.4287L21.829 52.605L21.7775 50.6957C21.7768 50.6714 21.7783 50.6402 21.7766 50.6138L21.7766 50.6138ZM36.0325 46.9442L28.2605 43.8525C28.2532 43.8496 28.2459 43.8467 28.2385 43.8438L24.3497 42.2968C23.8134 42.1264 23.1726 41.7928 22.7347 41.452C22.2872 41.1036 21.8964 40.6388 21.8321 40.0558L21.7707 39.4985L36.7567 45.2749C36.7753 45.2821 36.7939 45.2893 36.8125 45.2965L39.527 46.3428C39.5611 46.3559 39.5951 46.369 39.6292 46.3822L43.0502 47.7032C43.0684 47.7095 43.0853 47.7144 43.1034 47.7213L57.6805 53.3401L57.6443 53.6073C57.601 53.9257 57.4825 54.233 57.258 54.4682C56.9308 54.8109 56.4741 54.907 56.0158 54.8757L55.9625 54.8721L39.882 48.4754C39.8439 48.4602 39.8058 48.445 39.7676 48.4299L36.0326 46.9442L36.0325 46.9442ZM55.7527 40.2216C55.7653 40.2168 55.7778 40.2119 55.7904 40.2071L57.6287 39.4985L57.5673 40.0558C57.555 40.1667 57.5305 40.2757 57.4948 40.3814C57.3464 40.8204 57.017 41.1753 56.6557 41.4529C56.3506 41.6874 56.0066 41.8811 55.6583 42.0436C55.4603 42.1359 55.2661 42.2109 55.0642 42.2912L51.1674 43.8413C51.1557 43.8459 51.1441 43.8506 51.1325 43.8552L43.1724 47.0214L40.642 46.0461L42.8373 45.1999C42.8646 45.1894 42.8919 45.1789 42.9191 45.1684L55.7528 40.2216L55.7527 40.2216ZM40.2039 42.996C40.4383 42.1852 40.8479 41.4685 41.424 40.8523C42.5564 39.6413 44.1907 38.9624 45.7615 38.5329C46.5949 38.305 47.4445 38.1379 48.2963 37.9959C49.0422 37.8716 49.7909 37.7697 50.5373 37.6501C51.0154 37.5735 51.5494 37.4891 52.0091 37.3374C52.0935 37.3096 52.4508 37.1783 52.4791 37.0786C52.4797 37.0765 52.4798 37.0741 52.4798 37.0718V23.6231L55.4424 25.7238L55.3137 39.6643L42.8717 44.4601L42.7162 44.3211C42.4273 44.0626 42.0763 43.8668 41.7166 43.726C41.326 43.573 40.9094 43.477 40.493 43.4296L40.0917 43.3839L40.2039 42.996L40.2039 42.996ZM38.9131 43.4765C38.5779 43.5357 38.2455 43.6281 37.9311 43.7592C37.5667 43.9111 37.2126 44.1224 36.9303 44.4005L36.7735 44.555L23.9643 39.6176L23.9554 25.7249L26.9194 23.623V37.0771C26.9194 37.2816 27.0963 37.4185 27.2924 37.4174C27.5762 37.4157 27.8756 37.4379 28.1585 37.459C28.7079 37.5001 29.2569 37.5605 29.8024 37.6369C31.3009 37.8467 32.8264 38.1822 34.247 38.7067C36.3288 39.4752 38.5065 40.7862 39.1806 43.043L39.2902 43.4099L38.9131 43.4765L38.9131 43.4765Z" fill="white"/>
<path fill-rule="evenodd" clip-rule="evenodd" d="M39.3614 30.213L39.3597 41.6013L38.7567 40.8769C36.4213 38.0717 31.3812 37.0203 27.919 36.774L27.6021 36.7515V23.3331L27.9749 23.3678C31.1758 23.6665 35.4254 24.4843 37.8178 26.8464C38.3885 27.4098 38.8699 28.0836 39.1457 28.8408C39.2562 29.1441 39.359 29.5378 39.3615 29.8649L39.364 30.213L39.3615 30.213L39.3614 30.213ZM40.0385 29.9383V29.8694C40.0392 29.5487 40.1411 29.1555 40.2481 28.858C40.5205 28.1006 40.9991 27.4258 41.5673 26.8614C43.9571 24.4874 48.2196 23.6669 51.4251 23.3678L51.7978 23.333V36.7523L51.4817 36.7755C48.0194 37.0291 42.9883 38.0872 40.6388 40.875L40.0368 41.5894L40.0385 29.9388C40.0385 29.9386 40.0385 29.9384 40.0385 29.9383L40.0385 29.9383ZM21.3644 55.6042H58.0354C58.7887 55.6042 59.3998 56.2153 59.3998 56.9686C59.3998 57.7219 58.7887 58.333 58.0354 58.333H21.3644C20.6111 58.333 20 57.7219 20 56.9686C20 56.2153 20.6111 55.6042 21.3644 55.6042Z" fill="white"/>
</g>
<defs>
<clipPath id="clip0_4799_9325">
<rect width="40" height="40" fill="white" transform="translate(20 20)"/>
</clipPath>
</defs>
</svg>
