<svg width="80" height="80" viewBox="0 0 80 80" fill="none" xmlns="http://www.w3.org/2000/svg">
<path d="M80 40C80 62.0914 62.0914 80 40 80C17.9086 80 0 62.0914 0 40C0 17.9086 17.9086 0 40 0C62.0914 0 80 17.9086 80 40Z" fill="#34495E"/>
<g clip-path="url(#clip0_5714_13677)">
<path d="M61.9009 39.7597L55.6555 33.5144V24.6821C55.6555 24.4951 55.504 24.3436 55.317 24.3436H46.4845L40.2394 18.0982C40.1124 17.9712 39.8876 17.9712 39.7608 18.0982L33.5156 24.3436H24.6827C24.4958 24.3436 24.3443 24.4951 24.3443 24.6821V33.5144L18.0991 39.7597C17.967 39.892 17.967 40.1062 18.0991 40.2383L24.3443 46.4836V55.3159C24.3443 55.5029 24.4958 55.6544 24.6827 55.6544H33.5155L39.7606 61.8998C39.8241 61.9633 39.9101 61.9989 40 61.9989C40.0898 61.9989 40.1759 61.9632 40.2394 61.8998L46.4845 55.6544H55.317C55.504 55.6544 55.6555 55.5029 55.6555 55.3159V46.4836L61.9009 40.2383C61.9644 40.1748 62 40.0888 62 39.9989C62 39.9092 61.9644 39.8231 61.9009 39.7597ZM50.7861 44.4666V50.7848H44.4674L40 55.2524L35.5326 50.7848H29.2136V44.4666L24.7465 39.9989L29.2136 35.5312V29.2131H35.5326L40 24.7454L44.4674 29.2131H50.7861V35.5312L55.2535 39.9989L50.7861 44.4666Z" fill="white"/>
<path d="M48.9886 31.0103H43.7226L40 27.2871L36.2772 31.0103H31.0114V36.2753L27.2886 39.9984L31.0114 43.7214V48.9864H36.2772L40 52.7096L43.7225 48.9864H48.9884V43.7214L52.7112 39.9984L48.9884 36.2753V31.0103H48.9886ZM46.4616 41.6509H43.9892L45.7373 43.3987L45.8272 45.8256L43.4003 45.7357L41.6522 43.9878V46.4597L40 48.2392L38.3476 46.4596V43.9873L36.5995 45.7356L34.1726 45.8255L34.2625 43.3986L36.0106 41.6505L33.5385 41.6507L31.759 39.9981L33.5385 38.3457L36.0106 38.3455L34.2625 36.5976L34.1726 34.1707L36.5995 34.2606L38.3476 36.0087V33.5366L40 31.757L41.6523 33.5366V36.0087L43.4004 34.2606L45.8273 34.1707L45.7374 36.5976L43.9893 38.3457H46.4617L48.2408 39.9981L46.4616 41.6509Z" fill="white"/>
<path d="M38.4116 36.1641L36.165 38.4105V41.5869L38.4113 43.8332H41.5883L43.8343 41.5872V38.4102L41.5883 36.1641H38.4116Z" fill="white"/>
</g>
<defs>
<clipPath id="clip0_5714_13677">
<rect width="44" height="44" fill="white" transform="translate(18 18)"/>
</clipPath>
</defs>
</svg>
