<svg width="80" height="80" viewBox="0 0 80 80" fill="none" xmlns="http://www.w3.org/2000/svg">
<circle cx="40" cy="40" r="40" fill="#54A0FF"/>
<path fill-rule="evenodd" clip-rule="evenodd" d="M28.7815 28.0066C28.7471 28.0156 28.6422 28.0396 28.5483 28.06C28.2953 28.1148 27.9594 28.4344 27.8464 28.7279C27.7569 28.9604 27.7487 29.8547 27.7642 37.6905L27.7815 46.3949L27.9756 46.6309C28.32 47.0498 28.4668 47.0986 29.5353 47.1494C30.6425 47.2021 30.9491 47.2334 31.9691 47.3972C34.7176 47.8386 37.0999 48.9426 38.8286 50.576L39.1254 50.8565L39.1239 42.0105C39.1231 37.1452 39.0979 33.0607 39.068 32.934C38.9194 32.3048 37.45 30.7052 36.3754 30.0025C34.781 28.9601 32.7469 28.2874 30.6253 28.1011C29.8162 28.03 28.8758 27.9818 28.7815 28.0066ZM50.1569 28.0359C47.5319 28.1898 45.4393 28.8205 43.6229 30.0052C42.5523 30.7035 41.0815 32.3048 40.9329 32.934C40.903 33.0607 40.8778 37.1434 40.877 42.0064L40.8755 50.8482L41.2036 50.5453C42.9855 48.9001 45.2904 47.8374 48.0319 47.3972C49.0519 47.2334 49.3584 47.2021 50.4657 47.1494C51.5341 47.0986 51.6809 47.0498 52.0253 46.6309L52.2194 46.3949L52.238 37.7212C52.2509 31.673 52.2362 28.9787 52.1894 28.8199C52.1104 28.5517 51.8647 28.2471 51.6339 28.1309C51.384 28.0053 51.0475 27.9836 50.1569 28.0359ZM24.6564 32.0204C24.3591 32.1547 24.2258 32.2917 24.0963 32.5964C24.0112 32.7965 24.0002 33.8753 24.0002 41.9514C24.0002 51.8659 23.9813 51.3117 24.3313 51.6802C24.671 52.038 25.0368 52.0816 26.014 51.8806C29.7468 51.1128 33.6668 51.0089 36.6546 51.5983C37.066 51.6794 37.4117 51.7368 37.423 51.7258C37.4642 51.6853 36.8289 51.1768 36.3129 50.8372C35.0206 49.9869 33.3473 49.3838 31.4221 49.0744C31.1212 49.026 30.2775 48.9471 29.547 48.8991C28.7302 48.8453 28.117 48.7756 27.9539 48.7179C27.0834 48.4099 26.3928 47.7036 26.123 46.8453C26.0039 46.4664 26.0002 46.2369 26.0002 39.1798V31.9049L25.4533 31.9062C25.0574 31.9072 24.8374 31.9387 24.6564 32.0204ZM54.0007 39.1798C54.0007 46.2369 53.997 46.4664 53.878 46.8453C53.6081 47.7034 52.9189 48.4085 52.047 48.7183C51.8829 48.7766 51.2819 48.845 50.4694 48.8979C49.7475 48.945 48.96 49.0134 48.7194 49.05C46.7845 49.3445 44.9866 49.9828 43.6909 50.8353C43.1725 51.1764 42.5366 51.6852 42.5779 51.7258C42.5892 51.7368 42.935 51.6794 43.3463 51.5983C46.3341 51.0089 50.2541 51.1128 53.987 51.8806C54.9642 52.0816 55.3299 52.038 55.6696 51.6802C56.0197 51.3117 56.0009 51.8678 55.9994 41.938C55.9981 33.1984 55.9929 32.785 55.8832 32.55C55.6594 32.0709 55.3121 31.9049 54.534 31.9049H54.0007V39.1798Z" fill="white"/>
</svg>
