<svg width="40" height="40" viewBox="0 0 40 40" fill="none" xmlns="http://www.w3.org/2000/svg">
<path fill-rule="evenodd" clip-rule="evenodd" d="M11.856 0.07186C9.91234 0.405732 8.24247 1.90302 7.61447 3.87501L7.48125 4.29344H4.20566C1.07695 4.29344 0.916239 4.30062 0.621768 4.45388C0.269168 4.63744 -0.00194276 5.09612 1.04876e-05 5.50571C0.00180747 5.87003 0.297998 6.36052 0.622549 6.53674C0.875299 6.67391 1.13117 6.68451 4.188 6.68451H7.48125L7.61447 7.10294C8.17653 8.86787 9.51091 10.2114 11.2495 10.7627C12.0086 11.0035 13.4487 11.0195 14.1793 10.7953C15.5697 10.3687 16.9331 9.24462 17.522 8.03944C18.3987 6.24543 18.3056 4.13268 17.2791 2.52955C16.111 0.705332 13.9279 -0.28409 11.856 0.07186ZM13.2897 2.46141C14.2488 2.6456 15.076 3.30115 15.5007 4.21374C15.7176 4.67968 15.7419 4.808 15.7419 5.48897C15.7419 6.16947 15.7175 6.29859 15.5011 6.76445C14.5841 8.73835 12.1215 9.17568 10.6093 7.6332C10.3975 7.41705 10.1296 7.0344 10.0141 6.78302C9.82788 6.37781 9.80405 6.23076 9.80405 5.48897C9.80405 4.74719 9.82788 4.60014 10.0141 4.19493C10.4036 3.34714 11.2857 2.64959 12.2008 2.46587C12.6764 2.37039 12.8128 2.36983 13.2897 2.46141ZM20.7045 4.44097C20.2705 4.6784 20.1172 4.95202 20.1172 5.48897C20.1172 6.02967 20.2813 6.32258 20.7087 6.54487C20.9592 6.67518 21.5657 6.68427 30.0409 6.68435C38.7176 6.68451 39.1168 6.67821 39.3774 6.53674C39.702 6.36052 39.9982 5.87003 40 5.50571C40.0019 5.09612 39.7308 4.63744 39.3782 4.45388C39.0745 4.29583 38.9359 4.29344 30.022 4.29344C21.3654 4.29344 20.9626 4.29982 20.7045 4.44097ZM27.5905 14.5793C27.0251 14.6826 26.0937 15.0717 25.581 15.4189C24.9808 15.8254 24.1366 16.7806 23.7998 17.4346C22.9958 18.9951 22.9975 20.9879 23.8041 22.5691C24.2282 23.4004 25.3052 24.4833 26.0941 24.8716C27.055 25.3445 27.4994 25.449 28.5552 25.4504C29.6065 25.4517 30.1922 25.3093 31.0744 24.8382C32.2761 24.1963 33.2746 22.9801 33.6768 21.6685L33.8112 21.2301L36.5351 21.1903C39.5916 21.1456 39.5438 21.1549 39.8495 20.5437C40.0419 20.159 40.0419 19.8305 39.8495 19.4459C39.5438 18.8346 39.5916 18.8439 36.5351 18.7992L33.8112 18.7594L33.6768 18.321C33.161 16.6387 31.8018 15.2817 30.0787 14.7288C29.4886 14.5394 28.2248 14.4634 27.5905 14.5793ZM29.6521 17.1335C30.472 17.4464 31.1916 18.2329 31.4485 19.0969C31.9025 20.623 31.0942 22.2937 29.6219 22.8726C29.0142 23.1116 28.0975 23.1122 27.4917 22.8739C26.3199 22.413 25.5472 21.2688 25.5472 19.9948C25.5472 17.8293 27.6447 16.3674 29.6521 17.1335ZM0.622549 18.947C0.291747 19.1266 0.00133869 19.6164 0.00133869 19.9948C0.00133869 20.3731 0.291747 20.863 0.622549 21.0425C0.883503 21.1842 1.29962 21.1903 10.6114 21.1903C21.3645 21.1903 20.6575 21.2247 21.0368 20.6824C21.2799 20.3345 21.2799 19.655 21.0368 19.3072C20.6575 18.7648 21.3645 18.7992 10.6114 18.7992C1.29962 18.7992 0.883503 18.8054 0.622549 18.947ZM10.351 29.1128C8.4335 29.561 6.88747 30.9866 6.32321 32.8268L6.18875 33.2652L3.46491 33.305C0.408395 33.3497 0.456211 33.3404 0.150489 33.9516C-0.0431953 34.3391 -0.0417109 34.6651 0.155801 35.06C0.448319 35.6449 0.481446 35.6512 3.5039 35.6961L6.18875 35.7359L6.32235 36.1765C6.75316 37.5976 7.97285 38.9599 9.33988 39.5468C9.91805 39.7951 10.8698 40 11.4448 40C11.6847 40 12.152 39.9429 12.4831 39.8731C13.6757 39.6218 14.5591 39.1093 15.3974 38.1824C16.3417 37.1382 16.7967 35.9411 16.7967 34.5006C16.7967 32.9456 16.3253 31.7884 15.2355 30.6682C14.4959 29.9078 14.0123 29.5947 13.0855 29.2763C12.3209 29.0135 11.0904 28.94 10.351 29.1128ZM12.5416 31.6392C13.6778 32.0729 14.4528 33.2332 14.4528 34.5006C14.4528 36.2185 13.1382 37.5521 11.4448 37.5521C9.75366 37.5521 8.43483 36.2164 8.43764 34.5063C8.44116 32.3208 10.5208 30.868 12.5416 31.6392ZM19.392 33.4376C18.5692 33.8513 18.5577 35.1114 19.3729 35.5356C19.677 35.6939 19.8138 35.6961 29.3756 35.6961C38.9373 35.6961 39.0741 35.6939 39.3782 35.5356C39.7308 35.3521 40.0019 34.8934 40 34.4838C39.9982 34.1195 39.702 33.629 39.3774 33.4528C39.1165 33.3112 38.7019 33.3051 29.3768 33.3069C20.5752 33.3084 19.624 33.321 19.392 33.4376Z" fill="black"/>
</svg>
