<svg width="316" height="509" viewBox="0 0 316 509" fill="none" xmlns="http://www.w3.org/2000/svg">
<path d="M150.79 393.836C150.654 393.764 150.557 393.625 150.565 393.456C150.468 393.317 150.476 393.148 150.552 393.014C150.598 392.778 150.74 392.681 150.921 392.517C151.132 392.456 151.343 392.395 151.516 392.401L155.212 393.334L156.216 389.702C156.261 389.466 156.405 389.369 156.586 389.205C156.796 389.144 157.007 389.083 157.18 389.088C157.247 389.124 157.383 389.196 157.45 389.232C157.518 389.269 157.615 389.407 157.682 389.443C157.712 389.546 157.742 389.649 157.772 389.752C157.801 389.854 157.764 389.921 157.756 390.09L156.334 395.235L151.03 393.878C150.954 394.011 150.925 393.908 150.79 393.836Z" fill="#110580"/>
<path d="M74.5105 374.043C74.3749 373.971 74.345 373.868 74.2474 373.728C74.2175 373.625 74.2254 373.455 74.2335 373.284C74.2714 373.217 74.2796 373.047 74.3853 373.016C74.4232 372.949 74.5669 372.852 74.6049 372.785C74.7106 372.754 74.8166 372.724 74.9223 372.693C75.0281 372.662 75.0957 372.698 75.2014 372.668L84.7468 375.156C84.9502 375.265 85.086 375.338 85.1457 375.544C85.2433 375.684 85.265 375.957 85.1891 376.091C85.1811 376.261 84.9994 376.426 84.8557 376.523C84.712 376.621 84.5005 376.682 84.2592 376.641L74.7817 374.188C74.6759 374.219 74.6461 374.116 74.5105 374.043ZM93.5714 378.917C93.4737 378.777 93.3763 378.638 93.3165 378.432C93.2568 378.225 93.3326 378.091 93.4085 377.957C93.4844 377.823 93.6661 377.659 93.7718 377.628C93.9833 377.567 94.0888 377.536 94.3302 377.578L103.876 380.066C104.011 380.139 104.079 380.175 104.147 380.211C104.215 380.248 104.312 380.387 104.38 380.423C104.41 380.527 104.44 380.63 104.47 380.733C104.499 380.836 104.462 380.903 104.454 381.073C104.416 381.14 104.408 381.311 104.302 381.341C104.264 381.408 104.12 381.506 104.082 381.573C103.976 381.604 103.871 381.634 103.765 381.665C103.659 381.696 103.591 381.659 103.486 381.69L94.0081 379.238C93.8047 379.129 93.669 379.056 93.5714 378.917ZM112.662 383.894C112.565 383.754 112.467 383.615 112.407 383.409C112.348 383.202 112.423 383.068 112.499 382.934C112.575 382.8 112.757 382.636 112.863 382.605C113.006 382.507 113.18 382.513 113.421 382.555L122.967 385.043C123.034 385.079 123.208 385.085 123.276 385.121C123.411 385.194 123.441 385.297 123.509 385.333C123.539 385.436 123.637 385.576 123.599 385.643C123.628 385.746 123.658 385.849 123.582 385.983C123.544 386.05 123.468 386.184 123.43 386.251C123.393 386.318 123.249 386.416 123.143 386.447C123.038 386.477 122.932 386.508 122.826 386.539C122.72 386.569 122.585 386.497 122.517 386.461L112.971 383.972C112.866 384.003 112.73 383.93 112.662 383.894ZM131.723 388.768C131.588 388.695 131.49 388.556 131.498 388.385C131.468 388.282 131.476 388.112 131.484 387.942C131.522 387.875 131.598 387.741 131.636 387.674C131.674 387.607 131.818 387.509 131.924 387.479C132.029 387.448 132.135 387.417 132.241 387.386C132.347 387.356 132.482 387.428 132.588 387.398L142.133 389.886C142.375 389.928 142.472 390.068 142.638 390.243C142.735 390.383 142.757 390.656 142.681 390.79C142.635 391.027 142.492 391.125 142.31 391.29C142.098 391.351 141.887 391.412 141.713 391.407L132.168 388.918C131.927 388.876 131.791 388.804 131.723 388.768Z" fill="#110580"/>
<path d="M60.0428 370.227L61.4664 365.078C61.5042 365.011 61.5123 364.841 61.6177 364.811C61.6555 364.744 61.7986 364.647 61.8364 364.58C61.9419 364.549 62.0475 364.519 62.1529 364.488C62.2584 364.458 62.3259 364.494 62.4314 364.463C62.499 364.499 62.6341 364.572 62.7018 364.608C62.7694 364.644 62.867 364.783 62.9346 364.819C62.9644 364.922 62.994 365.025 63.0238 365.127C63.0536 365.23 63.0159 365.297 63.0078 365.467L62.0029 369.102L65.7025 370.035C65.9432 370.077 66.0405 370.216 66.2055 370.391C66.3029 370.53 66.3245 370.802 66.2489 370.936C66.203 371.172 66.0596 371.269 65.8785 371.433C65.7352 371.53 65.5246 371.592 65.2839 371.55L60.0428 370.227Z" fill="#110580"/>
<path d="M64.0006 357.251C63.866 357.179 63.7691 357.04 63.7771 356.871C63.6802 356.733 63.688 356.564 63.7633 356.431L66.1719 347.846C66.2096 347.78 66.2176 347.611 66.3226 347.58C66.3602 347.514 66.5029 347.417 66.5405 347.35C66.6455 347.32 66.7503 347.289 66.8553 347.259C66.9602 347.228 67.0274 347.264 67.1323 347.234C67.1996 347.27 67.3344 347.342 67.4017 347.378C67.469 347.414 67.5658 347.552 67.6331 347.588C67.6628 347.691 67.6924 347.793 67.722 347.896C67.7516 347.998 67.714 348.065 67.706 348.234L65.2597 356.885C65.2221 356.952 65.2141 357.121 65.1091 357.151C65.0715 357.217 64.9288 357.314 64.8911 357.381C64.7862 357.411 64.6814 357.442 64.5765 357.472C64.4715 357.503 64.4043 357.467 64.2993 357.497C64.1351 357.323 64.0679 357.287 64.0006 357.251ZM68.7878 339.978C68.6532 339.906 68.5564 339.768 68.5267 339.665C68.4298 339.527 68.438 339.358 68.5133 339.225L70.9592 330.573C70.9969 330.507 71.0049 330.338 71.1098 330.307C71.1475 330.241 71.2228 330.108 71.3278 330.078C71.4327 330.047 71.5375 330.017 71.6425 329.986C71.7474 329.956 71.9199 329.961 71.9872 329.997C72.1218 330.069 72.189 330.105 72.2563 330.141C72.3236 330.177 72.4205 330.316 72.4501 330.418C72.4798 330.521 72.5092 330.623 72.5389 330.725C72.5685 330.828 72.4933 330.961 72.4557 331.027L70.0474 339.612C70.0017 339.848 69.859 339.945 69.6788 340.108C69.5362 340.205 69.3262 340.266 69.0867 340.225C68.9897 340.086 68.9224 340.05 68.7878 339.978ZM73.5751 322.705C73.4405 322.633 73.3436 322.495 73.3517 322.326C73.2547 322.187 73.2629 322.019 73.3382 321.886L75.7468 313.301C75.7844 313.234 75.8597 313.101 75.8974 313.035C75.935 312.968 76.0774 312.871 76.1151 312.805C76.22 312.774 76.3252 312.744 76.4301 312.713C76.5351 312.683 76.6022 312.719 76.7072 312.688C76.7745 312.724 76.909 312.796 76.9763 312.832C77.0436 312.868 77.1407 313.007 77.208 313.043C77.2377 313.145 77.2671 313.248 77.2968 313.35C77.3264 313.453 77.2889 313.519 77.2809 313.688L74.8346 322.34C74.7889 322.575 74.6462 322.672 74.466 322.836C74.3234 322.932 74.1134 322.993 73.8739 322.952C73.777 322.813 73.7097 322.777 73.5751 322.705Z" fill="#110580"/>
<path d="M78.29 305.49C78.1549 305.418 78.0577 305.279 78.0657 305.11C77.9684 304.971 77.9763 304.802 78.0519 304.668L79.4741 299.523L84.71 300.845C84.9126 300.953 85.0479 301.025 85.1074 301.231C85.2047 301.37 85.1587 301.606 85.1507 301.775C85.1426 301.944 84.9616 302.108 84.8185 302.205C84.6753 302.302 84.4645 302.364 84.2241 302.322L80.5283 301.389L79.5242 305.021C79.4864 305.088 79.4109 305.221 79.3731 305.287C79.3353 305.354 79.1923 305.451 79.0869 305.482C78.9816 305.513 78.876 305.543 78.7707 305.574C78.6653 305.604 78.5303 305.532 78.4249 305.562C78.4925 305.599 78.4251 305.563 78.29 305.49Z" fill="#110580"/>
<path d="M93.5705 304.902C93.4349 304.829 93.3751 304.623 93.2775 304.483C93.2177 304.277 93.2259 304.107 93.3018 303.973C93.3776 303.839 93.5591 303.674 93.6648 303.643C93.8763 303.582 93.9821 303.551 94.2234 303.593L103.769 306.082C103.836 306.118 103.972 306.191 104.04 306.227C104.108 306.263 104.206 306.403 104.273 306.439C104.303 306.542 104.333 306.645 104.363 306.748C104.393 306.852 104.355 306.919 104.347 307.089C104.377 307.192 104.301 307.326 104.195 307.357C104.089 307.388 104.013 307.521 103.975 307.588C103.87 307.619 103.764 307.65 103.658 307.681C103.553 307.711 103.485 307.675 103.379 307.706L93.9015 305.253C93.774 305.011 93.6383 304.938 93.5705 304.902ZM112.631 309.775C112.534 309.636 112.436 309.496 112.376 309.29C112.384 309.12 112.392 308.949 112.468 308.816C112.544 308.682 112.726 308.517 112.832 308.486C113.043 308.425 113.149 308.394 113.39 308.436L122.868 310.888C123.071 310.997 123.207 311.07 123.266 311.276C123.364 311.416 123.318 311.653 123.31 311.823C123.302 311.993 123.12 312.158 122.976 312.255C122.833 312.353 122.621 312.414 122.38 312.373L112.835 309.884C112.835 309.884 112.661 309.879 112.631 309.775ZM131.654 314.716C131.518 314.643 131.459 314.437 131.361 314.297C131.301 314.091 131.309 313.921 131.385 313.787C131.461 313.653 131.643 313.488 131.816 313.494C131.96 313.396 132.134 313.402 132.375 313.444L141.92 315.932C141.988 315.968 142.124 316.041 142.192 316.077C142.327 316.15 142.357 316.253 142.425 316.289C142.455 316.392 142.484 316.496 142.514 316.599C142.544 316.702 142.506 316.769 142.498 316.939C142.452 317.177 142.308 317.274 142.127 317.439C141.983 317.536 141.704 317.562 141.53 317.556L131.985 315.068C131.925 314.861 131.79 314.788 131.654 314.716ZM150.783 319.626C150.647 319.553 150.55 319.414 150.558 319.244C150.46 319.104 150.468 318.934 150.544 318.8C150.59 318.563 150.733 318.465 150.915 318.3C151.059 318.203 151.338 318.178 151.512 318.183L161.057 320.672C161.298 320.713 161.464 320.889 161.561 321.029C161.659 321.168 161.681 321.442 161.605 321.576C161.635 321.679 161.559 321.813 161.453 321.844C161.415 321.911 161.272 322.008 161.234 322.075C161.128 322.106 161.022 322.136 160.916 322.167C160.811 322.198 160.743 322.162 160.637 322.192L151.092 319.704C150.986 319.735 150.851 319.662 150.783 319.626Z" fill="#110580"/>
<path d="M173.068 330.216C172.933 330.144 172.836 330.005 172.844 329.835C172.814 329.733 172.822 329.563 172.83 329.394L173.835 325.759L170.135 324.825C170.068 324.789 169.933 324.716 169.865 324.68C169.797 324.644 169.7 324.505 169.7 324.505C169.67 324.403 169.64 324.3 169.61 324.197C169.581 324.094 169.619 324.027 169.627 323.858C169.673 323.622 169.816 323.524 169.997 323.36C170.14 323.263 170.351 323.202 170.592 323.244L175.9 324.602L174.477 329.752C174.439 329.819 174.363 329.952 174.325 330.019C174.288 330.086 174.144 330.183 174.107 330.249C174.001 330.28 173.896 330.311 173.79 330.341C173.685 330.372 173.55 330.3 173.444 330.33C173.271 330.325 173.204 330.288 173.068 330.216Z" fill="#110580"/>
<path d="M158.795 381.992C158.66 381.92 158.563 381.781 158.571 381.612C158.474 381.474 158.482 381.305 158.557 381.172L161.004 372.521C161.041 372.454 161.117 372.321 161.154 372.255C161.192 372.188 161.335 372.091 161.372 372.025C161.477 371.994 161.582 371.964 161.687 371.933C161.792 371.903 161.859 371.939 161.964 371.909C162.099 371.981 162.166 372.017 162.233 372.053C162.301 372.089 162.398 372.227 162.465 372.263C162.495 372.365 162.524 372.468 162.554 372.57C162.583 372.673 162.546 372.739 162.538 372.908L160.129 381.493C160.092 381.56 160.083 381.729 159.979 381.759C159.941 381.826 159.799 381.923 159.761 381.989C159.656 382.02 159.551 382.05 159.446 382.08C159.341 382.111 159.274 382.075 159.169 382.105C158.997 382.1 158.862 382.028 158.795 381.992ZM163.649 364.755C163.515 364.683 163.418 364.545 163.426 364.376C163.329 364.238 163.337 364.069 163.412 363.936L165.821 355.35C165.934 355.151 166.009 355.018 166.219 354.957C166.429 354.896 166.639 354.836 166.773 354.908C166.945 354.913 167.11 355.087 167.206 355.226C167.303 355.364 167.363 355.569 167.317 355.805L164.871 364.456C164.825 364.692 164.683 364.789 164.502 364.952C164.36 365.049 164.15 365.11 163.91 365.068C163.784 364.827 163.717 364.791 163.649 364.755ZM168.436 347.483C168.302 347.411 168.205 347.272 168.213 347.103C168.116 346.965 168.124 346.796 168.199 346.663L170.646 338.012C170.683 337.945 170.759 337.812 170.796 337.746C170.834 337.679 170.976 337.582 171.014 337.516C171.119 337.485 171.224 337.455 171.329 337.424C171.434 337.394 171.501 337.43 171.606 337.399C171.673 337.435 171.808 337.507 171.875 337.543C171.942 337.579 172.04 337.718 172.107 337.754C172.137 337.856 172.166 337.959 172.196 338.061C172.225 338.164 172.188 338.23 172.18 338.399L169.771 346.984C169.725 347.22 169.583 347.316 169.403 347.48C169.26 347.577 169.05 347.638 168.811 347.596C168.638 347.591 168.504 347.519 168.436 347.483Z" fill="#110580"/>
<path d="M10.7118 226.96C10.6144 226.821 10.6222 226.651 10.6302 226.482C10.6383 226.312 10.7518 226.112 10.8951 226.015C11.0383 225.918 11.2492 225.857 11.4223 225.862C11.5954 225.868 11.7307 225.94 11.9335 226.048L14.906 228.419L17.3684 225.476C17.4819 225.276 17.6931 225.214 17.904 225.153C18.1149 225.092 18.3176 225.2 18.5204 225.309C18.6854 225.484 18.7829 225.623 18.8425 225.829C18.902 226.034 18.7884 226.234 18.6749 226.434L15.2909 230.537L11.0793 227.243C10.8089 227.099 10.7794 226.996 10.7118 226.96Z" fill="#110580"/>
<path d="M-50.7381 178.56C-50.8358 178.42 -50.8276 178.25 -50.8575 178.147C-50.8494 177.976 -50.7736 177.842 -50.6977 177.708C-50.516 177.543 -50.372 177.446 -50.1984 177.451C-49.9868 177.39 -49.7835 177.499 -49.58 177.608L-41.9364 183.62C-41.8387 183.76 -41.7409 183.899 -41.6811 184.106C-41.6892 184.276 -41.7353 184.514 -41.879 184.611C-41.9549 184.745 -42.2046 184.874 -42.3783 184.868C-42.5898 184.93 -42.7931 184.821 -42.9288 184.748L-50.5044 178.772C-50.5723 178.736 -50.6404 178.7 -50.7381 178.56ZM-35.3831 190.621C-35.4808 190.481 -35.4726 190.311 -35.5025 190.208C-35.4944 190.037 -35.4186 189.903 -35.3426 189.769C-35.3047 189.702 -35.1609 189.604 -35.0551 189.574C-34.9493 189.543 -34.8436 189.512 -34.7378 189.481C-34.6321 189.451 -34.4965 189.523 -34.3907 189.493C-34.3229 189.529 -34.1869 189.602 -34.1191 189.638L-26.4755 195.65C-26.31 195.826 -26.2125 195.966 -26.2206 196.136C-26.1609 196.343 -26.2746 196.544 -26.3505 196.678C-26.5322 196.843 -26.6759 196.94 -26.8495 196.935C-27.0611 196.996 -27.2647 196.887 -27.4003 196.815L-35.0439 190.802C-35.2854 190.76 -35.3532 190.724 -35.3831 190.621ZM-20.0959 202.645C-20.1936 202.506 -20.1854 202.336 -20.1475 202.269C-20.1394 202.098 -20.0635 201.964 -19.9876 201.83C-19.8737 201.629 -19.6622 201.567 -19.4507 201.506C-19.2391 201.445 -19.0354 201.554 -18.832 201.663L-11.1884 207.675C-10.9849 207.784 -10.9254 207.99 -10.8657 208.197C-10.8059 208.404 -10.9196 208.605 -11.0334 208.806C-11.1473 209.007 -11.3589 209.069 -11.5704 209.13C-11.782 209.191 -11.9857 209.082 -12.1892 208.973L-19.8327 202.961C-19.9684 202.889 -19.9982 202.785 -20.0959 202.645ZM-4.71094 214.81C-4.80864 214.67 -4.80053 214.5 -4.83041 214.397C-4.82232 214.226 -4.74644 214.092 -4.67053 213.958C-4.63257 213.891 -4.48881 213.793 -4.45085 213.726C-4.34507 213.696 -4.2394 213.665 -4.13361 213.634C-4.02783 213.603 -3.89225 213.676 -3.78647 213.645C-3.71864 213.682 -3.58305 213.754 -3.51522 213.79L4.12836 219.803C4.19618 219.839 4.29411 219.979 4.36194 220.015C4.39182 220.118 4.42154 220.222 4.45141 220.325C4.48129 220.428 4.4435 220.495 4.43542 220.666C4.39746 220.733 4.32159 220.867 4.28363 220.934C4.16977 221.135 3.95786 221.196 3.74629 221.258C3.53472 221.319 3.33139 221.21 3.1279 221.102L-4.51568 215.089C-4.61338 214.95 -4.68107 214.913 -4.71094 214.81Z" fill="#110580"/>
<path d="M-4.56654 122.84C-4.66424 122.7 -4.65613 122.53 -4.686 122.426C-4.67792 122.256 -4.60204 122.122 -4.52613 121.988C-4.48817 121.921 -4.34441 121.823 -4.30645 121.756C-4.20067 121.726 -4.095 121.695 -3.98922 121.664C-3.88343 121.633 -3.74753 121.706 -3.64175 121.675C-3.57392 121.712 -3.43833 121.784 -3.3705 121.82L4.27303 127.833C4.34086 127.869 4.43855 128.008 4.50637 128.045C4.53625 128.148 4.56597 128.251 4.59584 128.355C4.62572 128.458 4.58784 128.525 4.57976 128.696C4.5418 128.763 4.46593 128.897 4.42797 128.964C4.39002 129.031 4.24625 129.128 4.20829 129.195C4.10251 129.226 3.99684 129.257 3.89106 129.288C3.78527 129.318 3.6497 129.246 3.54392 129.276C3.47609 129.24 3.34017 129.167 3.27234 129.131L-4.37119 123.119C-4.40106 123.016 -4.53667 122.943 -4.56654 122.84ZM10.7504 134.968C10.6527 134.828 10.6609 134.658 10.6689 134.487C10.677 134.317 10.7909 134.116 10.9346 134.018C11.0784 133.92 11.2899 133.859 11.4635 133.864C11.6371 133.87 11.7726 133.942 11.9761 134.051L19.6196 140.064C19.8231 140.173 19.883 140.379 19.9427 140.586C20.0024 140.793 19.8887 140.994 19.7748 141.195C19.5931 141.36 19.4492 141.457 19.2376 141.519C19.026 141.58 18.8227 141.471 18.6192 141.362L10.9757 135.35C10.8481 135.107 10.8182 135.004 10.7504 134.968ZM26.1054 147.028C26.0077 146.889 26.0158 146.718 26.0239 146.548C26.032 146.378 26.1458 146.177 26.2896 146.079C26.4333 145.981 26.6449 145.92 26.8185 145.925C26.9921 145.931 27.1654 145.936 27.331 146.112L34.9745 152.125C35.14 152.3 35.2378 152.44 35.2298 152.61C35.2217 152.781 35.1757 153.018 35.032 153.116C34.9181 153.317 34.7066 153.379 34.533 153.373C34.3214 153.434 34.1856 153.362 33.9821 153.253L26.3386 147.241C26.203 147.168 26.1352 147.132 26.1054 147.028ZM41.4223 159.156C41.3246 159.017 41.3324 158.846 41.3025 158.743C41.3106 158.572 41.3868 158.438 41.4627 158.304C41.5766 158.103 41.7881 158.042 41.9996 157.98C42.2112 157.919 42.4145 158.028 42.618 158.137L50.2616 164.149C50.4271 164.325 50.5249 164.465 50.5846 164.671C50.6444 164.878 50.5304 165.079 50.4165 165.28C50.3026 165.481 50.0911 165.543 49.9175 165.537C49.7059 165.598 49.5026 165.49 49.2991 165.381L41.6556 159.368C41.5199 159.296 41.4902 159.192 41.4223 159.156Z" fill="#110580"/>
<path d="M57.5355 177.553C57.4382 177.414 57.4462 177.245 57.4165 177.142C57.4245 176.972 57.5001 176.839 57.5757 176.706L60.0361 173.765L57.0661 171.396C56.9309 171.324 56.9012 171.221 56.8336 171.185C56.8039 171.083 56.774 170.98 56.7442 170.877C56.7145 170.774 56.6849 170.672 56.7605 170.538C56.7983 170.472 56.8739 170.338 56.9117 170.272C56.9495 170.205 57.0925 170.108 57.1978 170.077C57.3032 170.047 57.4088 170.016 57.5142 169.986C57.6195 169.955 57.6869 169.991 57.7923 169.961C57.8599 169.997 57.9949 170.069 58.0625 170.105L62.2031 173.359L58.8214 177.458C58.708 177.658 58.4974 177.719 58.2867 177.78C58.0759 177.841 57.8731 177.733 57.6704 177.625C57.6326 177.691 57.5652 177.655 57.5355 177.553Z" fill="#110580"/>
<path d="M23.0038 219.324C22.9069 219.185 22.9147 219.016 22.885 218.914C22.8931 218.745 22.9686 218.612 23.0439 218.479L28.82 211.528C28.8577 211.462 29.0003 211.365 29.1052 211.334C29.2101 211.304 29.3147 211.273 29.4196 211.243C29.5245 211.212 29.6593 211.284 29.7641 211.254C29.8314 211.29 29.9658 211.362 30.033 211.398C30.1971 211.572 30.294 211.711 30.286 211.88C30.3452 212.084 30.2321 212.284 30.1192 212.483L24.3427 219.434C24.3051 219.501 24.1628 219.598 24.1252 219.664C24.0203 219.695 23.9153 219.725 23.8105 219.755C23.7056 219.786 23.5711 219.714 23.4662 219.745C23.399 219.709 23.2646 219.637 23.1974 219.601C23.0629 219.529 23.0334 219.426 23.0038 219.324ZM34.4893 205.385C34.3924 205.246 34.4005 205.078 34.3709 204.975C34.3789 204.806 34.4541 204.673 34.5293 204.54L40.3059 197.589C40.3435 197.523 40.4861 197.426 40.5237 197.359C40.6286 197.329 40.7333 197.298 40.8382 197.268C40.9431 197.237 41.0105 197.273 41.1153 197.243C41.2498 197.315 41.317 197.351 41.3842 197.387C41.4515 197.423 41.5482 197.561 41.6155 197.597C41.6451 197.7 41.6749 197.802 41.7045 197.905C41.7341 198.007 41.6963 198.073 41.6883 198.242C41.6803 198.411 41.5754 198.442 41.5378 198.508L35.8285 205.496C35.6484 205.659 35.506 205.756 35.2963 205.817C35.0865 205.878 34.885 205.77 34.6833 205.662C34.5864 205.523 34.5189 205.487 34.4893 205.385ZM45.9751 191.446C45.8783 191.308 45.8863 191.139 45.8567 191.036C45.8647 190.867 45.9399 190.735 46.0152 190.602L51.7918 183.65C51.8294 183.584 51.972 183.487 52.0768 183.456C52.1817 183.426 52.2865 183.395 52.3913 183.365C52.4962 183.335 52.6306 183.407 52.7354 183.376C52.8403 183.346 52.9371 183.484 53.0043 183.52C53.1388 183.592 53.1686 183.695 53.2359 183.731C53.2655 183.833 53.2951 183.935 53.3247 184.038C53.3543 184.14 53.3167 184.207 53.3087 184.376C53.2711 184.442 53.1959 184.575 53.1583 184.641L47.3816 191.593C47.2015 191.756 47.0591 191.853 46.8494 191.914C46.6397 191.975 46.4378 191.867 46.2361 191.759C46.072 191.584 46.0423 191.482 45.9751 191.446Z" fill="#110580"/>
<path d="M207.128 118.662L85.8619 53.8365C77.2337 49.2242 66.3003 52.3959 61.4721 60.912L-105.817 355.982C-110.645 364.498 -107.557 375.165 -98.9291 379.777L22.3372 444.602C31.0328 449.251 41.8988 446.043 46.727 437.527L214.016 142.457C218.844 133.941 215.756 123.274 207.128 118.662Z" fill="white"/>
<path d="M211.778 113.748L87.5921 47.3661C82.0638 44.411 75.4928 43.7599 69.4996 45.4985C63.4011 47.2676 58.2336 51.2684 55.14 56.7246L-113.233 353.689C-116.326 359.145 -117.044 365.525 -115.322 371.474C-113.6 377.424 -109.548 382.364 -104.02 385.319L20.1653 451.701C25.6937 454.656 32.2269 455.374 38.3253 453.605C44.4238 451.836 49.5913 447.835 52.6849 442.379L221.058 145.414C224.151 139.958 224.869 133.578 223.147 127.629C221.425 121.679 217.306 116.703 211.778 113.748ZM46.5386 437.879C44.2373 441.938 40.3932 444.999 35.7669 446.341C31.1782 447.617 26.2574 447.154 22.1448 444.956L-99.1414 380.123C-103.321 377.889 -106.394 374.166 -107.633 369.689C-108.977 365.242 -108.369 360.451 -106.03 356.326L61.2863 61.2238C63.5876 57.1649 67.4991 54.1402 72.058 52.7621C76.5793 51.4505 81.5001 51.9132 85.6801 54.1476L100.984 62.3282C101.793 62.7607 102.413 63.5258 102.651 64.3464C102.889 65.167 102.773 66.1457 102.32 66.9442L101.566 68.275C100.359 70.4043 100.103 72.8689 100.757 75.1256C101.41 77.3823 103.009 79.3644 105.167 80.5177L173.529 117.06C174.608 117.637 175.732 117.978 176.97 118.119C178.14 118.224 179.424 118.13 180.58 117.794C181.737 117.459 182.834 116.918 183.805 116.136C184.737 115.421 185.543 114.464 186.147 113.4L186.863 112.136C187.316 111.337 188.068 110.785 188.947 110.475C189.788 110.231 190.786 110.331 191.595 110.763L206.899 118.944C211.079 121.178 214.151 124.901 215.39 129.379C216.735 133.826 216.127 138.616 213.788 142.742L46.4711 437.843L46.5386 437.879Z" fill="#54A0FF"/>
<path d="M60.4255 61.3311L39.0381 99.0669L192.394 181.072L213.782 143.336C216.095 139.255 216.705 134.437 215.392 129.899C214.041 125.428 210.991 121.617 206.857 119.406L191.474 111.181C190.661 110.746 189.726 110.682 188.813 110.891C187.967 111.136 187.173 111.758 186.718 112.561L185.96 113.899C185.353 114.969 184.581 115.864 183.606 116.65C182.668 117.37 181.527 117.98 180.365 118.318C179.202 118.655 177.98 118.786 176.736 118.644C175.56 118.538 174.362 118.159 173.277 117.579L104.562 80.8347C102.393 79.6751 100.853 77.7182 100.129 75.4128C99.4046 73.1074 99.767 70.5983 100.943 68.5242L101.663 67.253C102.118 66.4501 102.196 65.533 101.996 64.641C101.757 63.8158 101.133 63.0463 100.32 62.6115L84.8693 54.3495C80.6678 52.1028 75.8273 51.6069 71.177 52.9564C66.6704 54.2083 62.7387 57.2497 60.4255 61.3311Z" fill="#54A0FF" fill-opacity="0.1"/>
<path d="M136.028 424.222C151.234 432.347 170.418 426.785 178.89 411.85C187.361 396.916 181.944 378.209 166.737 370.084C151.531 361.96 132.347 367.522 123.876 382.457C115.366 397.458 120.821 416.098 136.028 424.222Z" fill="#EBDBCD"/>
<path d="M152.033 128.2L103.045 101.97C100.806 100.771 97.9485 101.601 96.6955 103.815C95.4426 106.028 96.2495 108.82 98.4886 110.019L147.477 136.249C149.716 137.448 152.573 136.618 153.826 134.404C155.079 132.191 154.272 129.399 152.033 128.2Z" fill="#C5C6E3"/>
<path d="M176.395 156.713C180.788 159.061 186.374 157.441 188.795 153.174C191.253 148.84 189.706 143.495 185.245 141.112C180.852 138.765 175.265 140.384 172.844 144.652C170.454 149.021 172.002 154.366 176.395 156.713Z" fill="white"/>
<path d="M181.388 145.749L182.576 149.852L178.37 151.073" stroke="#868AE0" stroke-width="0.917" stroke-linecap="round" stroke-linejoin="round"/>
<path d="M64.3944 96.6334C68.7875 98.9806 74.3739 97.3607 76.7944 93.0936C79.2528 88.7598 77.6375 83.3789 73.2444 81.0317C68.8513 78.6845 63.2645 80.3043 60.844 84.5714C58.3857 88.9052 60.0013 94.2862 64.3944 96.6334Z" fill="white"/>
<path d="M71.2688 86.6731L67.0626 87.8932L68.2504 91.9966" stroke="#868AE0" stroke-width="0.917" stroke-linecap="round" stroke-linejoin="round"/>
<path d="M129.895 252.783L28.0976 198.31C26.5377 197.476 24.6338 198.028 23.761 199.569L13.8559 217.059C12.9831 218.6 13.5887 220.495 15.0807 221.294L116.878 275.767C118.437 276.602 120.341 276.049 121.214 274.508L131.119 257.019C131.954 255.544 131.454 253.618 129.895 252.783Z" fill="#FFCBCE"/>
<path d="M23.5512 187.1L10.2639 179.992C8.8402 179.231 7.04257 179.753 6.24591 181.159C5.44925 182.565 5.95701 184.32 7.38069 185.081L20.668 192.189C22.0917 192.95 23.8894 192.429 24.686 191.022C25.4827 189.616 24.9749 187.862 23.5512 187.1Z" fill="#E8E8F7"/>
<path d="M15.021 221.162L18.3853 222.961L31.2998 200.164L27.9355 198.365C27.1954 197.969 26.372 197.874 25.5325 198.118C24.693 198.362 24.0472 198.883 23.633 199.614L13.8436 216.894C13.6553 217.227 13.4969 217.661 13.4432 218.066C13.3896 218.47 13.403 218.91 13.5216 219.32C13.6401 219.73 13.7963 220.073 14.1247 220.422C14.3562 220.633 14.6846 220.982 15.021 221.162Z" fill="#FF5856"/>
<path d="M77.1176 346.2L-24.6793 291.727C-26.2391 290.893 -28.1431 291.445 -29.016 292.987L-38.921 310.476C-39.7939 312.017 -39.1883 313.912 -37.6963 314.711L64.1007 369.184C65.6605 370.019 67.5644 369.466 68.4373 367.925L78.3423 350.436C79.1772 348.962 78.6775 347.035 77.1176 346.2Z" fill="#FEE3B0"/>
<path d="M53.4298 388.072L-48.3131 333.656C-49.8721 332.823 -51.8129 333.442 -52.6474 334.914L-67.9712 361.957C-68.8436 363.496 -68.2384 365.39 -66.7471 366.188L34.9957 420.604C36.5547 421.437 38.4576 420.885 39.33 419.346L54.6539 392.303C55.4883 390.83 54.9888 388.906 53.4298 388.072Z" fill="#54A0FF" fill-opacity="0.1"/>
<path d="M161.646 196.481L59.9526 142.111C58.3944 141.278 56.4924 141.83 55.6204 143.368L34.8448 180.018C33.9728 181.557 34.5778 183.449 36.0683 184.245L137.761 238.615C139.319 239.448 141.221 238.897 142.093 237.358L162.869 200.708C163.741 199.17 163.204 197.314 161.646 196.481Z" fill="#54A0FF" fill-opacity="0.1"/>
<path d="M55.2993 130.904L42.0119 123.796C40.5882 123.035 38.7906 123.556 37.994 124.962C37.1973 126.368 37.7051 128.123 39.1287 128.885L52.4161 135.992C53.8398 136.754 55.6374 136.232 56.4341 134.826C57.2307 133.42 56.723 131.665 55.2993 130.904Z" fill="#E8E8F7"/>
<path d="M36.0449 183.942L39.4037 185.74L63.0858 143.899L59.727 142.101C58.988 141.705 58.1659 141.611 57.3278 141.855C56.4896 142.098 55.8449 142.618 55.4314 143.349L34.8317 179.744C34.6438 180.076 34.4857 180.511 34.4321 180.915C34.3785 181.319 34.3919 181.759 34.5103 182.168C34.6286 182.578 34.7844 182.921 35.0451 183.233C35.3434 183.48 35.709 183.762 36.0449 183.942Z" fill="#54A0FF"/>
<path d="M1.061 226.909L-12.2264 219.801C-13.65 219.039 -15.4477 219.561 -16.2443 220.967C-17.041 222.373 -16.5332 224.128 -15.1095 224.89L-1.82219 231.997C-0.398513 232.759 1.39912 232.237 2.19578 230.831C2.9545 229.492 2.48467 227.67 1.061 226.909Z" fill="#E8E8F7"/>
<path d="M107.369 292.576L5.64917 238.182C4.0905 237.349 2.18798 237.901 1.31577 239.44L-16.4316 270.754C-17.3038 272.293 -16.6987 274.185 -15.2078 274.983L86.5123 329.377C88.071 330.21 89.9734 329.659 90.8456 328.12L108.593 296.806C109.465 295.267 108.928 293.41 107.369 292.576Z" fill="#54A0FF" fill-opacity="0.1"/>
<path d="M-15.2313 274.705L-11.8714 276.504L8.84752 239.905L5.48761 238.106C4.74843 237.71 3.92612 237.616 3.08772 237.86C2.24931 238.103 1.6044 238.623 1.19077 239.354L-16.4072 270.44C-16.5952 270.772 -16.7535 271.207 -16.8071 271.611C-16.8607 272.015 -16.8472 272.455 -16.7288 272.865C-16.6104 273.274 -16.4545 273.617 -16.1265 273.966C-15.9329 274.243 -15.5673 274.525 -15.2313 274.705Z" fill="#54A0FF"/>
<path d="M59.503 159.061C59.4355 159.025 59.3679 158.989 59.3679 158.989C59.3004 158.952 59.2709 158.85 59.2709 158.85C59.2411 158.747 59.241 158.747 59.2788 158.681C59.3166 158.614 59.2868 158.511 59.2868 158.511C59.3245 158.445 59.3624 158.378 59.43 158.414C60.1155 157.826 60.9362 157.31 61.8243 156.83C61.9296 156.799 62.0348 156.769 62.2076 156.774C62.3426 156.846 62.4102 156.882 62.5075 157.021C62.5372 157.124 62.5668 157.226 62.5587 157.396C62.4832 157.529 62.4453 157.596 62.3023 157.693C61.5572 158.076 60.7369 158.592 60.0891 159.114C60.0513 159.18 59.9459 159.211 59.8784 159.175C59.7056 159.169 59.6381 159.133 59.503 159.061Z" fill="#110580"/>
<path d="M113.191 216.068C113.123 216.031 113.056 215.995 113.056 215.995L112.628 215.505C111.539 214.315 110.451 213.124 109.295 211.897C109.265 211.794 109.167 211.655 109.205 211.588C109.175 211.485 109.251 211.351 109.394 211.254C109.47 211.12 109.643 211.126 109.711 211.162C109.817 211.132 109.952 211.204 109.982 211.307C111.1 212.601 112.227 213.725 113.315 214.916L113.743 215.405C113.811 215.441 113.773 215.508 113.84 215.545C113.87 215.648 113.87 215.647 113.9 215.75C113.862 215.817 113.892 215.92 113.892 215.92C113.854 215.987 113.816 216.054 113.816 216.054C113.778 216.12 113.673 216.151 113.567 216.182C113.326 216.14 113.258 216.104 113.191 216.068ZM105.918 207.743C105.85 207.707 105.782 207.671 105.715 207.634C104.604 206.171 103.57 204.574 102.641 202.946C102.573 202.91 102.611 202.843 102.582 202.74C102.619 202.674 102.552 202.637 102.59 202.571C102.627 202.504 102.665 202.437 102.665 202.437C102.703 202.37 102.809 202.34 102.809 202.34C102.914 202.309 103.02 202.278 103.193 202.284C103.328 202.356 103.396 202.392 103.494 202.532C104.355 204.123 105.322 205.684 106.432 207.147C106.529 207.287 106.559 207.39 106.521 207.456C106.551 207.559 106.475 207.693 106.332 207.79C106.227 207.821 106.189 207.888 106.121 207.851C106.053 207.815 105.918 207.743 105.918 207.743ZM100.585 198.019C100.517 197.982 100.45 197.946 100.382 197.91C100.314 197.874 100.352 197.807 100.284 197.771C99.6423 195.948 99.2413 194.168 99.0891 192.259C99.0593 192.156 99.0592 192.156 99.097 192.089C99.1349 192.022 99.1728 191.956 99.2107 191.889C99.2486 191.822 99.2865 191.755 99.3542 191.792C99.392 191.725 99.4598 191.761 99.5654 191.73C99.6709 191.7 99.7385 191.736 99.8062 191.772C99.8739 191.808 99.9414 191.844 100.009 191.88C100.077 191.917 100.107 192.02 100.174 192.056C100.204 192.159 100.204 192.159 100.234 192.262C100.424 194.104 100.825 195.884 101.332 197.635C101.362 197.737 101.392 197.841 101.354 197.907C101.316 197.974 101.278 198.041 101.24 198.108C101.135 198.138 101.097 198.205 100.991 198.236C100.72 198.091 100.653 198.055 100.585 198.019ZM99.4067 187.034C99.3391 186.997 99.2715 186.961 99.2417 186.858C99.2118 186.756 99.1819 186.652 99.2198 186.586C99.4141 184.688 99.8492 182.832 100.487 181.085C100.563 180.951 100.601 180.884 100.745 180.787C100.85 180.756 100.956 180.726 101.129 180.731C101.197 180.767 101.264 180.804 101.332 180.84C101.4 180.876 101.429 180.979 101.429 180.979C101.497 181.015 101.459 181.082 101.489 181.185C101.451 181.252 101.519 181.288 101.481 181.355C100.881 183.035 100.483 184.824 100.259 186.619C100.222 186.686 100.251 186.789 100.251 186.789C100.251 186.789 100.176 186.922 100.108 186.886C100.07 186.953 100.002 186.917 99.9644 186.984C99.9265 187.05 99.8587 187.014 99.791 186.978L99.4067 187.034ZM104.903 183.096C103.918 182.657 103.076 182.12 102.166 181.547C102.098 181.51 102.03 181.474 102.068 181.407C102.001 181.371 102.039 181.305 102.009 181.202C101.979 181.099 102.055 180.965 102.093 180.898C102.168 180.765 102.274 180.734 102.379 180.703C102.485 180.673 102.62 180.745 102.688 180.781C103.53 181.318 104.372 181.855 105.29 182.259C106.072 182.59 106.787 182.885 107.569 183.216C107.637 183.252 107.704 183.288 107.704 183.288C107.772 183.324 107.84 183.36 107.802 183.427C107.87 183.463 107.832 183.53 107.861 183.633C107.824 183.7 107.891 183.736 107.853 183.803C107.816 183.87 107.778 183.936 107.778 183.936C107.74 184.003 107.634 184.034 107.634 184.034C107.529 184.064 107.529 184.064 107.423 184.095C107.356 184.059 107.318 184.126 107.25 184.089C106.468 183.758 105.685 183.427 104.903 183.096ZM97.9664 177.91C97.8988 177.874 97.831 177.838 97.831 177.838C96.4717 176.502 95.256 175.069 94.1458 173.606C94.0781 173.57 94.0485 173.467 94.0485 173.467C94.0187 173.364 94.0186 173.364 93.9888 173.261C94.0266 173.194 94.0645 173.127 94.0645 173.127C94.1024 173.061 94.1402 172.994 94.1402 172.994C94.1781 172.927 94.2459 172.963 94.3514 172.933C94.3893 172.866 94.4568 172.902 94.5245 172.938C94.5922 172.974 94.66 173.011 94.66 173.011C94.7277 173.047 94.7952 173.083 94.8629 173.119C96.2737 174.83 97.3922 176.124 98.5186 177.248C98.5863 177.284 98.6158 177.387 98.6158 177.387C98.6835 177.423 98.6457 177.49 98.6079 177.557C98.6377 177.66 98.6377 177.66 98.5999 177.727C98.562 177.793 98.5241 177.86 98.4564 177.824C98.4185 177.891 98.3128 177.921 98.2073 177.952C98.1017 177.982 98.0341 177.946 97.9664 177.91ZM112.837 184.812C112.769 184.776 112.702 184.74 112.672 184.637C112.642 184.534 112.574 184.498 112.545 184.395C112.515 184.292 112.59 184.159 112.666 184.025C112.742 183.892 112.847 183.861 113.021 183.867C113.992 183.864 114.905 183.655 115.922 183.416C116.767 183.171 117.513 182.787 118.193 182.367C118.298 182.336 118.404 182.305 118.51 182.275C118.645 182.347 118.713 182.383 118.848 182.456C118.878 182.559 118.975 182.698 118.899 182.831C118.891 183.001 118.786 183.032 118.71 183.165C117.887 183.683 117.073 184.031 116.123 184.306C115.135 184.648 114.087 184.785 113.01 184.818C112.972 184.885 112.905 184.849 112.837 184.812ZM103.063 176.544C102.995 176.507 102.928 176.472 102.966 176.405C102.898 176.369 102.868 176.265 102.868 176.265C102.838 176.163 102.838 176.163 102.876 176.096C102.914 176.029 102.952 175.962 102.952 175.962C104.034 174.365 105.387 172.913 106.935 171.738C107.04 171.708 107.184 171.61 107.251 171.646C107.319 171.683 107.492 171.688 107.59 171.827C107.62 171.93 107.717 172.069 107.679 172.136C107.671 172.306 107.565 172.336 107.49 172.47C106.047 173.614 104.77 174.933 103.764 176.396C103.688 176.53 103.65 176.597 103.477 176.591C103.371 176.622 103.198 176.616 103.063 176.544ZM90.7392 169.349L90.5363 169.24L89.2908 167.705C88.5028 166.761 87.7149 165.818 86.9188 165.045C86.8511 165.009 86.8889 164.942 86.8212 164.906C86.7914 164.803 86.7913 164.803 86.7615 164.7C86.7993 164.633 86.7319 164.597 86.7698 164.53C86.8076 164.463 86.8456 164.396 86.8456 164.396C86.8835 164.33 86.9509 164.366 86.9887 164.299C87.0266 164.232 87.0944 164.269 87.162 164.305C87.2297 164.341 87.2678 164.274 87.3355 164.31C87.4031 164.346 87.4706 164.382 87.4706 164.382C88.2965 165.259 89.0546 166.099 89.8724 167.145L91.118 168.681C91.1857 168.717 91.1479 168.784 91.2156 168.82C91.1777 168.887 91.2454 168.923 91.2076 168.99C91.1697 169.057 91.1318 169.124 91.1318 169.124L91.0561 169.257C90.9506 169.288 90.9125 169.355 90.8448 169.318C90.9802 169.391 90.8746 169.421 90.7392 169.349ZM67.3243 156.053C67.2567 156.017 67.1211 155.944 67.159 155.878C67.1292 155.775 67.0996 155.672 67.0697 155.569C67.1076 155.502 67.1833 155.368 67.2212 155.302C67.3268 155.271 67.3645 155.204 67.5378 155.21C69.4893 155.034 71.4627 155.132 73.3522 155.532C73.4198 155.569 73.4873 155.605 73.4873 155.605C73.555 155.641 73.6229 155.677 73.6527 155.78C73.7203 155.816 73.6823 155.883 73.75 155.919C73.7121 155.986 73.7799 156.022 73.742 156.089C73.7042 156.155 73.7339 156.259 73.6662 156.222C73.6283 156.289 73.5904 156.356 73.5227 156.32C73.4849 156.387 73.4174 156.35 73.3118 156.381C73.2063 156.412 73.2061 156.412 73.1384 156.375C71.3167 156.011 69.4491 155.883 67.6329 156.131C67.595 156.198 67.4597 156.125 67.3243 156.053ZM83.036 161.316L82.9008 161.244C81.4279 160.109 79.917 159.041 78.2548 158.239C78.1871 158.203 78.1196 158.167 78.0519 158.131C77.9842 158.095 78.022 158.028 77.9543 157.992C77.9245 157.889 77.9244 157.889 77.9623 157.822C78.0002 157.755 77.9324 157.719 77.9703 157.652C78.046 157.519 78.1518 157.488 78.2573 157.457C78.3629 157.427 78.536 157.432 78.6037 157.469C80.2957 158.373 81.9119 159.411 83.3848 160.546C83.4524 160.582 83.5203 160.618 83.4824 160.685C83.5501 160.721 83.5124 160.788 83.5422 160.891C83.572 160.994 83.5717 160.994 83.5338 161.06C83.4959 161.127 83.4581 161.194 83.4581 161.194C83.4202 161.261 83.3148 161.292 83.2093 161.322C83.277 161.358 83.1713 161.389 83.036 161.316ZM121.954 179.156C121.819 179.083 121.751 179.047 121.759 178.877C121.729 178.774 121.737 178.605 121.775 178.538C122.427 177.233 122.568 175.741 122.112 174.367C122.023 174.058 121.896 173.816 121.769 173.574C121.739 173.471 121.709 173.368 121.784 173.235C121.822 173.168 121.898 173.034 122.004 173.004C122.109 172.973 122.215 172.942 122.35 173.015C122.418 173.051 122.553 173.123 122.621 173.159C122.778 173.504 122.905 173.746 122.995 174.055C123.509 175.636 123.323 177.364 122.625 178.905C122.55 179.039 122.444 179.069 122.339 179.1C122.263 179.233 122.09 179.228 121.954 179.156ZM112.077 170.135C112.009 170.099 111.942 170.063 111.912 169.96C111.844 169.924 111.814 169.821 111.852 169.754C111.822 169.651 111.822 169.651 111.86 169.584C111.898 169.518 111.936 169.451 111.936 169.451C111.974 169.384 112.012 169.317 112.079 169.354C112.117 169.287 112.185 169.323 112.291 169.292C114.183 168.911 116.261 168.978 118.143 169.548C118.278 169.62 118.346 169.656 118.376 169.759C118.473 169.899 118.435 169.966 118.427 170.135C118.351 170.269 118.314 170.336 118.17 170.433C118.027 170.53 117.959 170.494 117.824 170.422C116.078 169.924 114.21 169.796 112.423 170.147C112.25 170.141 112.183 170.105 112.077 170.135Z" fill="#110580"/>
<path d="M118.611 222.666C118.476 222.593 118.408 222.557 118.378 222.454C118.034 221.662 117.585 220.9 117.06 220.271C117.03 220.169 116.932 220.029 116.97 219.963C117.008 219.896 117.084 219.762 117.159 219.629C117.265 219.598 117.408 219.501 117.476 219.538C117.582 219.507 117.717 219.579 117.747 219.682C118.369 220.45 118.819 221.211 119.193 222.107C119.155 222.174 119.222 222.21 119.184 222.276C119.146 222.343 119.109 222.41 119.109 222.41C119.071 222.476 119.033 222.543 119.033 222.543C118.995 222.61 118.928 222.574 118.89 222.641C118.784 222.671 118.716 222.635 118.611 222.666Z" fill="#110580"/>
<path d="M121.514 211.514C121.281 211.302 121.01 211.158 120.701 211.08C120.355 211.069 120.076 211.094 119.857 211.325L100.058 224.152C100.224 224.328 100.389 224.503 100.592 224.612C100.795 224.72 100.998 224.829 101.277 224.804L136.39 228.513C136.631 228.555 136.91 228.53 137.121 228.469C137.332 228.408 137.581 228.28 137.762 228.116L121.514 211.514Z" fill="#D5D5ED"/>
<path d="M119.132 216.36C119.365 216.572 119.636 216.716 119.914 216.691C120.155 216.733 120.54 216.677 120.721 216.513L140.3 204.696L140.164 204.624L140.097 204.588C140.029 204.552 139.894 204.479 139.826 204.443L139.962 204.515C139.729 204.304 139.42 204.226 139.179 204.184L104.062 200.474C103.648 200.426 103.226 200.549 102.901 200.81L119.132 216.36Z" fill="white"/>
<path d="M116.373 213.539L102.996 200.661C102.89 200.691 102.852 200.758 102.852 200.758C102.528 201.019 102.302 201.419 102.248 201.824L99.656 222.84C99.6021 223.246 99.6833 223.723 99.9454 224.037L116.373 213.539Z" fill="#E8E8F7"/>
<path d="M137.407 228.418C137.302 228.449 137.196 228.479 137.091 228.51C137.226 228.582 137.369 228.485 137.407 228.418Z" fill="#E8E8F7"/>
<path d="M140.383 204.706L124.198 214.465L137.641 228.16C137.603 228.227 137.46 228.324 137.355 228.355C137.603 228.227 137.822 227.997 137.935 227.797C138.087 227.53 138.2 227.33 138.178 227.058L140.732 206.108C140.778 205.872 140.756 205.6 140.697 205.394C140.743 205.158 140.548 204.881 140.383 204.706Z" fill="#E8E8F7"/>
<path d="M140.436 204.886L140.337 204.746L140.436 204.886Z" fill="#E8E8F7"/>
<path d="M24.4185 318.11C22.7862 321.768 22.5927 325.846 23.9077 329.597C25.2227 333.349 27.8892 336.43 31.4112 338.313C34.9332 340.195 39.0397 340.735 43.0078 339.808C46.9759 338.88 50.4209 336.54 52.7304 333.245L24.4185 318.11Z" fill="#FDB62F"/>
<path d="M64.8932 283.872L15.8208 257.584C14.3955 256.82 12.5281 257.307 11.7306 258.717C10.933 260.127 11.4411 261.886 12.9343 262.686L62.0066 288.974C63.432 289.738 65.2997 289.251 66.0972 287.841C66.827 286.395 66.3185 284.635 64.8932 283.872Z" fill="#C5C6E3"/>
<path d="M38.4746 283.019L10.0468 267.799C8.62206 267.037 6.75554 267.523 5.95827 268.931C5.16099 270.34 5.66889 272.097 7.16152 272.897L35.5893 288.116C37.0141 288.879 38.8807 288.393 39.6779 286.984C40.4074 285.539 39.8994 283.782 38.4746 283.019Z" fill="#C5C6E3"/>
<path d="M19.7241 381.368L-36.9548 351.001C-38.3803 350.238 -40.2478 350.725 -41.0454 352.135C-41.8431 353.545 -41.3349 355.305 -39.8416 356.105L16.8373 386.472C18.2628 387.235 20.1303 386.748 20.9279 385.338C21.6577 383.892 21.1496 382.132 19.7241 381.368Z" fill="#C5C6E3"/>
<path d="M52.5194 233.531L47.5197 230.859C45.8983 229.993 44.6847 228.563 44.1113 226.78C43.5379 224.997 43.6939 223.17 44.4662 221.498L51.8973 206.536C51.9729 206.403 52.0486 206.269 52.1918 206.172C52.3349 206.075 52.4402 206.044 52.5833 205.947C52.7563 205.953 52.8995 205.855 53.0346 205.928C53.2075 205.933 53.3426 206.005 53.4778 206.078L70.9758 215.427C71.1109 215.499 71.2461 215.571 71.2758 215.674C71.3731 215.813 71.4029 215.915 71.5002 216.054C71.5299 216.157 71.5217 216.326 71.5137 216.496C71.5056 216.665 71.4301 216.799 71.3545 216.932L62.3023 231.028C61.3274 232.592 59.7145 233.727 57.9611 234.18C56.0726 234.56 54.0733 234.361 52.5194 233.531Z" fill="#FF5856"/>
<path d="M69.856 219.129L68.4761 221.252C69.4416 222.029 70.0462 223.132 70.1625 224.322C70.3462 225.547 70.0122 226.756 69.4086 227.82C68.7376 228.849 67.6998 229.595 66.5055 229.997C65.3112 230.399 64.0357 230.324 62.9193 229.814L61.5394 231.938C63.2625 232.772 65.2579 232.972 67.0454 232.453C68.9002 231.971 70.5473 230.77 71.5578 229.142C72.5684 227.515 72.9346 225.63 72.6779 223.759C72.3834 221.954 71.3906 220.296 69.856 219.129Z" fill="#FF5856"/>
<path d="M65.2976 208.107C65.2976 208.107 63.2414 201.983 64.9957 199.197C67.6837 194.917 72.597 195.379 73.4138 190.532C73.7658 188.208 74.3823 180.309 74.3823 180.309C74.3823 180.309 76.5845 187.723 76.6396 191.651C76.6434 195.205 74.0684 199.285 71.2179 200.446C64.9622 202.817 65.2976 208.107 65.2976 208.107Z" fill="#DCDCED"/>
<path d="M18.8659 319.623C17.1766 318.721 15.3577 318.357 13.3796 318.429C11.5068 318.471 9.60988 319.021 8.00495 319.988C6.71617 320.862 5.71921 322.154 5.30082 323.668C5.17128 324.207 4.56971 326.665 5.9019 326.334C9.19859 325.49 12.6439 325.159 16.0869 325.609C17.7408 325.797 20.5174 320.593 18.8659 319.623Z" fill="#FDB62F"/>
<path d="M21.3755 332.916C18.115 334.64 15.1082 336.846 12.565 339.474C11.4362 340.69 10.7036 342.292 10.4885 343.911C10.4106 344.823 10.8043 345.987 12.0061 345.416C13.5689 344.518 14.9377 343.343 16.2767 342.065C17.6454 340.89 19.0438 339.817 20.3828 338.539C21.6087 337.461 22.4006 336.064 22.6453 334.548C22.7151 333.805 22.6527 332.212 21.3755 332.916Z" fill="#FDB62F"/>
<path d="M46.9231 345.877C48.0395 349.338 48.9154 352.758 50.175 356.122C50.7264 357.632 52.0602 356.521 52.7242 355.661C53.6448 354.503 54.87 352.033 54.2808 350.59C53.2239 347.334 51.8888 344.103 50.659 340.842C50.1374 339.434 48.9468 340.448 48.3881 341.278C47.6107 342.338 46.4689 344.506 46.9231 345.877Z" fill="#FDB62F"/>
<path d="M31.5838 343.424C29.6403 346.543 28.653 350.608 27.8247 354.237C27.5961 355.414 27.4838 357.78 29.3903 356.894C31.2967 356.007 32.4515 353.505 32.9895 351.627C33.4065 350.117 33.6889 348.535 34.0008 347.056C34.3505 345.51 35.0607 343.637 34.4811 342.027C33.9689 340.454 31.8395 343.127 31.5838 343.424Z" fill="#FDB62F"/>
</svg>
