<svg width="29" height="24" viewBox="0 0 29 24" fill="none" xmlns="http://www.w3.org/2000/svg">
<path fill-rule="evenodd" clip-rule="evenodd" d="M25.8626 0.0705746C25.7101 0.11384 23.6259 0.897 21.231 1.81101C18.8361 2.72502 13.3947 4.80126 9.13887 6.42488C4.88305 8.04844 1.24248 9.45379 1.04879 9.54787C0.665556 9.73396 0.271341 10.0813 0.127289 10.3599C-0.0161522 10.6372 -0.0406693 11.0298 0.0654974 11.3494C0.179984 11.6942 0.60038 12.1107 1.04047 12.3156C1.20826 12.3937 2.51066 12.7914 3.93465 13.1995L6.52369 13.9414L7.91939 17.9352C8.84111 20.5727 9.38016 22.0364 9.50679 22.2454C9.74264 22.6346 10.1223 22.9796 10.5256 23.1709C10.7915 23.2971 10.9018 23.3157 11.3853 23.3153C11.8488 23.315 11.9878 23.2934 12.2308 23.1839C12.688 22.9778 12.9076 22.7979 14.5755 21.2634C15.4376 20.4702 16.163 19.8212 16.1874 19.8212C16.2117 19.8212 17.2377 20.6319 18.4672 21.6227C19.6967 22.6135 20.8243 23.506 20.9727 23.6059C21.5774 24.0128 22.4776 24.1198 23.0735 23.8556C23.57 23.6354 24.0502 23.0883 24.2549 22.5096C24.3031 22.3733 25.2455 17.8188 26.3491 12.3884C28.1727 3.41527 28.3554 2.46698 28.3533 1.98807C28.3493 1.09186 28.0427 0.544886 27.3543 0.206029C26.924 -0.00580541 26.3244 -0.0602756 25.8626 0.0705746ZM26.6558 1.72182C26.6924 1.75843 26.7224 1.8647 26.7224 1.95795C26.7224 2.2486 22.7294 21.8627 22.6293 22.0638C22.3714 22.5818 22.2395 22.5192 20.299 20.9587C14.9932 16.6919 13.715 15.6508 13.715 15.5958C13.715 15.562 15.6495 13.4807 18.0138 10.9705C20.3782 8.46035 22.3584 6.33657 22.4143 6.25099C22.5473 6.04753 22.5467 5.64527 22.413 5.41241C22.302 5.21877 21.9023 4.98336 21.6847 4.98336C21.5432 4.98336 20.9028 5.30519 12.4798 9.60988L7.08448 12.3672L4.58979 11.6567C3.21766 11.2659 2.09526 10.9337 2.09548 10.9185C2.09576 10.9032 3.69929 10.2805 5.659 9.53456C7.6187 8.78867 10.3578 7.74453 11.7459 7.21425C13.134 6.68397 15.0435 5.95462 15.9892 5.59346C17.9906 4.82916 26.1006 1.7394 26.2232 1.69447C26.3718 1.64006 26.5877 1.6537 26.6558 1.72182ZM17.5336 9.04643C16.4207 10.2074 11.7818 15.1683 11.721 15.2625C11.678 15.3291 11.3884 16.4196 11.0774 17.6857C10.7665 18.9517 10.4964 20.0167 10.4772 20.0523C10.4581 20.0879 9.93656 18.6676 9.31831 16.8961C8.70006 15.1246 8.20084 13.6703 8.20894 13.6644C8.23645 13.6443 13.5414 10.9359 15.5455 9.91868C16.6438 9.36122 17.5661 8.88391 17.595 8.85789C17.624 8.83194 17.6729 8.81069 17.7036 8.81069C17.7344 8.81069 17.6579 8.91675 17.5336 9.04643ZM13.9237 17.9598C14.4343 18.3699 14.8502 18.7193 14.8478 18.7363C14.8414 18.7821 11.905 21.4688 11.8844 21.4477C11.8747 21.4379 12.0883 20.5312 12.3591 19.4329C12.6298 18.3346 12.8656 17.3781 12.8831 17.3073C12.9005 17.2365 12.9329 17.1865 12.9551 17.1964C12.9772 17.2062 13.4132 17.5497 13.9237 17.9598Z" fill="white"/>
</svg>
