<svg width="32" height="24" viewBox="0 0 32 24" fill="none" xmlns="http://www.w3.org/2000/svg">
<path fill-rule="evenodd" clip-rule="evenodd" d="M11.8795 0.0471861C9.08831 0.111578 5.67811 0.276154 4.83085 0.387381C3.66324 0.540668 2.85661 0.886136 2.06412 1.57236C1.24354 2.28283 0.790625 3.09641 0.44007 4.48951C0.0973936 5.85141 0 7.5169 0 12.0142C0 17.3427 0.155954 19.1293 0.750861 20.6163C1.43752 22.3327 2.71579 23.2801 4.74561 23.5773C5.7814 23.7289 6.81048 23.7925 9.95648 23.8993C14.9847 24.0699 20.4298 24.0223 24.989 23.7677C27.3513 23.6359 27.8143 23.5565 28.6514 23.1402C29.782 22.578 30.5262 21.7202 30.9937 20.4405C31.5666 18.8723 31.6943 17.3369 31.6943 12.0142C31.6943 6.89042 31.5591 5.13771 31.0512 3.676C30.4998 2.08898 29.3972 1.03465 27.8103 0.576833C27.1417 0.383845 26.4197 0.311266 24.0382 0.197371C19.9153 0.000288407 16.0059 -0.0480363 11.8795 0.0471861ZM19.4631 1.90554C22.9989 1.98737 26.5196 2.17489 27.1089 2.3128C27.6288 2.43451 28.0011 2.61403 28.4196 2.9448C28.8229 3.26366 29.0732 3.66229 29.3052 4.35564C29.7275 5.61785 29.8395 7.26176 29.8353 12.1383C29.8309 17.2038 29.7169 18.571 29.1836 19.9537C28.7894 20.9762 28.0858 21.5389 26.9268 21.7586C26.5351 21.833 23.8951 21.9782 21.3087 22.0678C18.6811 22.1587 13.6653 22.1602 10.887 22.0709C5.25714 21.8899 4.33445 21.7807 3.45208 21.1915C2.95413 20.859 2.67057 20.4567 2.41598 19.7216C1.97945 18.4607 1.86102 16.8163 1.86102 12.0142C1.86102 7.26008 1.97126 5.70216 2.39793 4.42605C2.63471 3.71781 2.80766 3.41831 3.18216 3.068C3.9159 2.38172 4.39729 2.24605 6.5446 2.12037C10.5787 1.88427 15.2118 1.80716 19.4631 1.90554ZM12.5874 6.7055C12.2984 6.83136 11.9656 7.20878 11.8844 7.50294C11.8318 7.69333 11.8171 8.87737 11.8303 11.8383L11.8485 15.9117L12.0374 16.1807C12.302 16.5575 12.685 16.758 13.1305 16.7527C13.4703 16.7488 13.6014 16.6844 17.1006 14.8052C19.0909 13.7363 20.7989 12.8036 20.8961 12.7327C21.184 12.5221 21.3806 12.1268 21.3835 11.7519C21.3869 11.3267 21.2561 11.0265 20.9592 10.7779C20.8273 10.6674 19.4213 9.86564 17.8348 8.99617C13.3492 6.53782 13.5062 6.61685 13.1148 6.61964C12.9301 6.62101 12.6928 6.65965 12.5874 6.7055ZM16.5039 10.3914C17.6996 11.0444 18.7253 11.6139 18.7831 11.6569C18.8741 11.7244 18.54 11.9221 16.3173 13.1153C14.9033 13.8745 13.7311 14.4956 13.7125 14.4956C13.6938 14.4956 13.6785 13.2227 13.6785 11.6671V8.8386L14.0042 9.02129C14.1833 9.12179 15.3082 9.73835 16.5039 10.3914Z" fill="white"/>
</svg>
